<svg width="544" height="167" viewBox="0 0 544 167" fill="none" style="background: white" xmlns="http://www.w3.org/2000/svg">
<path d="M172.757 164.439L161.502 124.242L159.129 101.971L167.705 84.0455H172.413L184.816 134.693L199.172 84.0455H215.366L229.722 134.693L242.24 84.0455H264.291L241.896 164.439H220.189L207.326 119.074L194.464 164.439H172.757Z" fill="#333333"/>
<path d="M297.64 166.161C289.141 166.161 282.097 164.362 276.508 160.764C270.919 157.165 267.014 152.303 264.793 146.178L282.365 135.957C285.351 143.077 290.634 146.637 298.214 146.637C304.492 146.637 307.631 144.838 307.631 141.24C307.631 138.866 305.832 136.952 302.234 135.497C300.702 134.885 297.333 133.851 292.127 132.396C284.777 130.252 278.958 127.266 274.67 123.438C270.383 119.533 268.239 114.136 268.239 107.245C268.239 99.8179 270.88 93.8075 276.163 89.2136C281.523 84.6197 288.184 82.3228 296.147 82.3228C302.884 82.3228 308.856 83.8923 314.063 87.0315C319.269 90.1707 323.251 94.7263 326.007 100.698L308.78 110.805C306.253 104.833 302.08 101.847 296.262 101.847C293.811 101.847 291.936 102.345 290.634 103.34C289.409 104.335 288.796 105.599 288.796 107.13C288.796 108.891 289.715 110.384 291.553 111.609C293.467 112.834 297.142 114.25 302.578 115.858C306.483 117.007 309.622 118.079 311.996 119.074C314.369 120.069 316.972 121.524 319.805 123.438C322.638 125.276 324.744 127.688 326.122 130.674C327.5 133.583 328.189 137.028 328.189 141.01C328.189 148.896 325.395 155.06 319.805 159.5C314.216 163.941 306.827 166.161 297.64 166.161Z" fill="#333333"/>
<path d="M386.426 122.864C393.163 126.845 396.532 132.856 396.532 140.895C396.532 148.016 394.082 153.72 389.182 158.007C384.282 162.295 377.736 164.439 369.543 164.439H335.663V84.0455H367.361C375.4 84.0455 381.832 86.1127 386.655 90.2472C391.479 94.3052 393.891 99.8561 393.891 106.9C393.891 113.638 391.403 118.959 386.426 122.864ZM366.787 102.421H356.221V115.054H366.787C368.624 115.054 370.156 114.518 371.381 113.446C372.682 112.298 373.333 110.728 373.333 108.738C373.333 106.824 372.721 105.292 371.496 104.144C370.271 102.995 368.701 102.421 366.787 102.421ZM368.969 146.063C371.036 146.063 372.721 145.451 374.022 144.226C375.324 142.924 375.975 141.278 375.975 139.287C375.975 137.22 375.324 135.574 374.022 134.349C372.721 133.124 371.036 132.511 368.969 132.511H356.221V146.063H368.969Z" fill="#333333"/>
<path d="M411.611 166.047C408.242 166.047 405.371 164.898 402.997 162.601C400.7 160.228 399.552 157.395 399.552 154.102C399.552 150.81 400.738 148.016 403.112 145.719C405.485 143.345 408.318 142.158 411.611 142.158C414.903 142.158 417.698 143.345 419.994 145.719C422.368 148.016 423.555 150.81 423.555 154.102C423.555 157.395 422.368 160.228 419.994 162.601C417.698 164.898 414.903 166.047 411.611 166.047Z" fill="#333333"/>
<path d="M451.929 123.783C451.929 124.855 452.886 125.735 454.8 126.424C456.791 127.113 459.165 127.764 461.921 128.377C464.754 128.989 467.549 129.87 470.305 131.018C473.138 132.09 475.511 133.966 477.425 136.646C479.416 139.325 480.411 142.694 480.411 146.752C480.411 153.337 477.961 158.199 473.061 161.338C468.161 164.477 462.342 166.047 455.604 166.047C442.741 166.047 434.166 161.491 429.879 152.38L446.531 143.996C447.986 148.207 450.972 150.312 455.49 150.312C458.935 150.312 460.658 149.279 460.658 147.212C460.658 146.14 459.701 145.259 457.786 144.57C455.872 143.881 453.537 143.192 450.781 142.503C448.024 141.814 445.268 140.895 442.512 139.747C439.755 138.598 437.42 136.76 435.506 134.234C433.592 131.631 432.635 128.453 432.635 124.701C432.635 118.576 434.894 113.829 439.411 110.46C443.928 107.092 449.364 105.407 455.719 105.407C467.051 105.407 474.937 109.848 479.378 118.729L463.299 125.965C461.615 122.673 459.241 121.026 456.179 121.026C453.346 121.026 451.929 121.945 451.929 123.783Z" fill="#333333"/>
<path d="M522.868 105.407C529.07 105.407 534.123 107.551 538.028 111.839C542.009 116.05 544 122.137 544 130.099V164.439H524.935V132.511C524.935 129.525 524.132 127.266 522.524 125.735C520.992 124.204 518.925 123.438 516.322 123.438C513.336 123.438 511.001 124.357 509.316 126.195C507.708 127.956 506.904 130.52 506.904 133.889V164.439H487.84V84.0455H506.904V112.757C510.35 107.857 515.671 105.407 522.868 105.407Z" fill="#333333"/>
<path fill-rule="evenodd" clip-rule="evenodd" d="M35.2102 95.7554C35.4925 95.8142 32.5351 100.883 32.7581 101.214C33.6666 100.238 36.1544 99.3089 36.918 98.2152C39.6455 93.7146 43.7425 84.4294 46.4636 79.8964C46.9106 79.1258 47.0985 77.345 48.6339 78.4783C49.7418 79.3136 51.9639 79.6309 51.0375 81.9816C50.4868 83.3804 49.9815 84.7985 49.4956 86.2232C47.0855 93.2364 44.669 100.243 42.3172 107.276C41.7342 109.011 41.2936 109.659 39.6869 107.962C38.0802 106.265 36.1107 104.906 34.4068 103.293C33.8926 102.81 33.6792 102.014 33.3566 101.333C33.3026 102.025 32.9439 103.029 33.2666 103.358C35.7608 105.883 38.3134 108.312 40.9438 110.669C41.177 110.876 42.4662 110.481 42.5764 110.138C43.4834 107.353 44.7532 108.636 45.9582 109.775C50.3034 113.816 55.4018 116.963 60.9628 119.035C65.2581 120.68 69.3203 123.005 73.3888 125.213C73.8531 125.501 74.2482 125.888 74.5461 126.345C74.8439 126.803 75.0372 127.321 75.1122 127.862C75.2763 139.609 75.3584 151.351 75.3584 163.09C75.3519 165.337 75.9414 166.062 78.2738 165.984C106.521 165.017 134.759 164.108 162.989 163.258C165.237 163.193 165.975 162.345 166.157 160.247C166.681 154.237 167.517 148.247 167.906 142.231C168.061 139.816 166.768 134.578 165.936 132.052L163.684 121.715C162.395 121.612 161.583 99.0645 162.542 98.1579C168.424 92.5564 170.135 85.336 170.782 77.6623C170.825 76.7316 171.191 75.845 171.819 75.1562C175.726 71.9054 176.684 67.4502 177.229 62.7682C177.358 61.6285 177.397 60.2363 178.045 59.4527C180.047 57.0955 179.159 54.6736 178.311 52.4395C177.462 50.2054 175.143 50.7235 173.199 50.7235C172.444 50.6996 171.689 50.7278 170.938 50.8077C169.273 51.0537 168.58 50.2572 168.476 48.703C168.262 45.5041 168.023 42.3115 167.828 39.119C167.634 35.7128 168.45 31.7691 166.986 29.0558C165.373 26.0381 165.146 23.6162 165.373 20.3784C165.852 13.689 161.602 9.39562 156.419 6.08007C151.632 3.00412 146.189 1.48233 140.579 0.834763C125.872 -0.868343 112.403 3.01707 99.6404 10.082C98.8978 10.5934 98.2073 11.1764 97.5788 11.8225C98.458 11.6747 99.3201 11.4388 100.152 11.1182C111.6 5.27708 123.663 2.17523 136.582 3.01707C143.572 3.45094 150.187 5.12814 156.069 9.00708C161.045 12.3032 160.293 16.48 157.806 20.7928C155.972 23.9659 153.737 24.0372 150.938 21.6865C150.116 20.9871 149.247 20.346 148.47 19.6078C140.203 11.7269 130.362 9.1625 119.258 11.0469C112.572 12.178 105.901 13.4062 99.2451 14.7316C95.5717 15.4698 91.9502 16.5124 88.3221 17.4579C88.0371 17.5356 87.8427 17.9306 87.603 18.1831C87.9078 18.2595 88.2219 18.2922 88.5359 18.2803C91.2958 17.7946 94.0557 17.2377 96.7962 16.7779C99.5099 16.3226 102.103 16.5404 104.292 18.4311C104.335 18.4283 104.378 18.4255 104.422 18.4227L104.895 18.3839L104.357 18.4875C104.335 18.4685 104.314 18.4497 104.292 18.4311C102.21 18.5655 100.128 18.7291 98.0466 18.8242C92.9735 19.0746 88.225 20.152 84.4825 23.9043C85.958 23.5263 87.4499 23.1856 88.9117 22.7485C100.036 19.4135 109.015 25.0797 118.176 29.8717C118.403 29.9948 118.493 30.3833 118.642 30.6424C118.317 30.8649 117.961 31.0394 117.586 31.1604C114.619 31.672 111.963 31.3223 109.371 29.3796C102.543 24.2185 93.3107 21.8354 84.7848 29.1529C83.6433 30.2241 82.2308 30.9634 80.6997 31.2909C79.1686 31.6185 77.5771 31.5218 76.0969 31.0115C75.5339 30.9622 74.9667 31.0082 74.419 31.1475C74.866 31.6202 75.2806 32.4426 75.7147 32.4426C77.6259 32.4815 76.7318 34.1068 77.2501 34.8904C76.4727 35.2271 75.6823 35.9071 74.9178 35.8747C73.7646 35.8229 72.6503 35.1689 71.4906 35.007C70.6962 35.0058 69.906 35.1214 69.1453 35.3502C69.395 36.018 69.7327 36.6496 70.1495 37.2281C72.9023 40.1443 76.3443 42.3221 80.159 43.5614C80.8782 43.8333 81.39 44.591 82.0378 45.1285C81.4418 45.517 80.8458 45.8991 80.2627 46.3006C79.8675 46.5725 79.4982 46.8834 79.116 47.1813C79.4723 47.4986 79.7962 48.0425 80.185 48.0943C82.284 48.3598 81.9277 49.655 81.4807 50.9501C81.0216 52.2746 80.4873 53.5718 79.8805 54.8355C78.7273 57.2251 78.8827 57.7107 81.3187 58.3583C82.446 58.6562 84.124 58.177 83.826 60.3334C84.2356 60.5253 84.6728 60.652 85.1217 60.709C85.8538 60.8061 86.8256 60.5471 87.292 60.9292C88.0565 61.5638 88.4971 62.5805 89.0737 63.4417C88.424 63.7264 87.8035 64.0734 87.2208 64.4778C85.4521 65.9154 83.1587 67.1264 82.1026 69.0108C77.9563 76.4061 79.6407 84.1833 86.236 90.3223C86.7325 90.8384 87.1956 91.3856 87.6224 91.9606C86.8831 92.0254 86.1396 92.0254 85.4003 91.9606C79.5241 91.0217 73.6545 90.2446 67.8625 89.0013C61.656 87.6737 56.1815 85.0381 52.411 79.4626C49.7094 75.4606 47.3447 75.7326 44.9346 79.8446C44.7079 80.2138 44.4941 80.5893 44.2867 80.9714C43.5352 82.3766 42.9716 81.7161 42.6995 80.7318C41.8443 77.6494 40.9891 74.5605 40.3412 71.4327C40.0497 69.9886 40.0368 68.4992 38.2098 68.3373C36.2727 68.169 35.1713 69.3216 34.9316 71.1607C34.7955 72.2357 35.1 73.343 34.9704 74.3986C34.8973 74.9406 34.383 75.4193 34.031 75.9268L35.0877 79.6107C36.8635 79.119 36.3436 77.7728 36.2791 76.542C36.1132 74.8332 36.0828 73.1139 36.1884 71.4003C36.2532 70.7851 37.225 70.2736 37.7757 69.7167C38.2475 70.2847 38.6398 70.9143 38.9419 71.5881C39.7582 74.4504 40.1339 77.481 41.3001 80.1814C42.3626 82.6357 42.3755 84.5719 40.9114 86.7736C39.6309 88.7667 38.4901 90.8461 37.4971 92.9967C36.6549 94.7387 35.2555 95.3345 33.8496 94.3307C29.5025 91.2095 24.8119 88.2954 21.281 84.41C19.0394 81.9298 17.4975 77.9861 20.7368 74.2691C21.6627 73.2033 22.361 71.9597 22.7888 70.6145C23.2166 69.2693 23.3649 67.851 23.2246 66.4464C23.1534 65.7989 23.6393 65.1513 23.8725 64.5037C24.5981 64.8858 25.6865 65.0995 25.9651 65.6888C26.4676 66.7398 26.6501 67.9153 26.4899 69.0691C26.025 71.2808 25.4279 73.4627 24.7018 75.6031C23.2117 80.4015 24.2936 82.5709 28.9647 84.3776C30.9444 85.127 32.8652 86.0231 34.7113 87.0585C35.4823 87.4924 35.9358 88.4961 36.5318 89.2408C36.2727 88.0364 36.3439 86.5146 35.6248 85.6986C34.4233 84.5115 33.0191 83.5488 31.4785 82.8558C30.1568 82.1759 28.6214 81.9104 27.2414 81.3146C25.1553 80.408 25.0516 79.4755 26.8268 78.135C27.2575 77.838 27.7288 77.6047 28.2262 77.4421C29.0813 77.1378 29.9495 76.8982 30.8176 76.6327C29.7828 76.3048 28.7234 76.0601 27.6496 75.9009C26.918 75.9511 26.1986 76.1138 25.5168 76.3833C25.5086 76.4146 25.5004 76.446 25.4922 76.4773V76.3931C25.5004 76.3898 25.5086 76.3865 25.5168 76.3833C26.4069 72.9911 27.2949 69.5968 28.1808 66.2004L28.1096 66.2586C26.6238 63.867 25.2136 61.5702 23.7235 59.1872L22.9406 59.5185L25.9327 63.772L26.004 63.8497C25.1394 63.4677 24.2356 63.1811 23.3089 62.9949C22.4043 61.5702 21.9051 61.3005 22.0346 59.9212C22.0346 59.3513 22.538 59.6191 23.7235 59.1872L20.7628 58.1964C20.6461 59.2908 20.3028 60.4176 20.4583 61.4666C20.6915 63.0143 21.3588 64.4972 21.6827 66.0385C21.7864 66.55 21.4171 67.1652 21.2616 67.7351C20.7791 67.5354 20.3188 67.2858 19.8881 66.9904C18.0936 65.6085 16.3945 64.107 14.8024 62.4963C11.2715 58.572 6.89197 59.3038 2.55775 60.1197C2.03636 60.2886 1.56452 60.5831 1.18379 60.9772C0.803063 61.3713 0.525118 61.853 0.374439 62.3797C0.303174 63.1762 1.38511 64.2577 2.21438 64.9052C3.42588 65.8248 5.22047 66.0579 6.10157 67.1199C10.1313 72.0155 13.9343 77.086 17.8215 82.1046C19.1949 83.8855 20.2315 86.0678 21.9354 87.4277C26.0169 90.6914 29.7357 94.6481 35.2102 95.7554ZM12.6126 62.4963L12.0101 61.5702L11.1599 61.1708L10.7727 61.0392L10.6301 60.8903L10.7144 60.9615L11.1599 61.1708L12.0684 61.4796L12.7163 62.425L13.2346 63.1762L13.9407 63.7396C14.0136 63.8427 14.0863 63.9458 14.159 64.049C14.5818 64.3846 15.0062 64.7193 15.4307 65.054L15.4316 65.0548L15.4337 65.0564L15.4354 65.0577C17.2285 66.4716 19.0242 67.8875 20.7109 69.3929C20.95 69.6141 20.817 70.2466 20.6839 70.8791C20.6223 71.1722 20.5606 71.4654 20.536 71.7176C20.3858 71.6371 20.2222 71.5638 20.0571 71.4898C19.6382 71.3022 19.2098 71.1103 18.9682 70.7851C17.6476 69.0137 16.3766 67.2042 15.1054 65.3945C14.7902 64.9458 14.475 64.4971 14.159 64.049C14.0646 63.974 13.9702 63.8989 13.876 63.8238L13.1503 63.241L12.6126 62.4963ZM139.801 118.848C139.17 119.319 138.511 119.79 137.852 120.261C137.65 120.405 137.449 120.549 137.249 120.693L140.436 120.136C140.125 121.329 139.747 122.503 139.303 123.653C137.058 128.708 134.755 133.746 132.454 138.777L132.124 139.499C131.922 139.865 131.693 140.216 131.438 140.548C131.238 140.193 131.08 139.817 130.965 139.427C129.755 133.314 128.574 127.197 127.421 121.075C127.33 120.547 127.381 120.004 127.57 119.502C128.593 116.879 129.669 114.321 130.764 111.731C131.005 111.301 131.297 110.901 131.632 110.539C131.928 110.978 132.147 111.465 132.28 111.977C132.357 113.055 132.396 114.144 132.434 115.236C132.436 115.309 132.439 115.382 132.441 115.454V115.455V115.456V115.457C132.467 116.227 132.494 117 132.532 117.773C132.585 118.107 132.679 118.433 132.811 118.744C132.891 118.437 132.937 118.122 132.947 117.805C132.908 117.031 132.878 116.256 132.847 115.481C132.761 113.279 132.674 111.076 132.396 108.901C132.215 107.496 132.247 106.991 133.815 106.991C136.608 106.984 139.406 106.842 142.192 106.628C143.695 106.518 144.563 106.842 144.136 108.525C144.009 109.018 143.885 109.511 143.76 110.005C143.174 112.321 142.588 114.642 141.829 116.905C141.633 117.514 140.988 117.978 140.369 118.424C140.172 118.566 139.978 118.706 139.801 118.848ZM118.364 110.669C117.732 112.267 117.203 113.904 116.673 115.542C116.446 116.241 116.22 116.94 115.986 117.637C116.478 116.735 116.972 115.852 117.466 114.969C117.876 114.236 118.286 113.504 118.694 112.761C118.826 112.506 118.983 112.277 119.141 112.047C119.209 111.949 119.276 111.851 119.342 111.75C119.426 111.881 119.528 112 119.628 112.117C119.806 112.325 119.977 112.524 120.022 112.761C120.115 113.221 120.213 113.68 120.311 114.137C121.038 117.536 121.748 120.861 120.23 124.417C119.059 127.157 118.343 130.079 117.626 133.003C117.288 134.384 116.949 135.766 116.563 137.129C116.378 137.567 116.138 137.98 115.85 138.359C115.553 138.061 115.306 137.718 115.118 137.342C112.306 129.2 109.516 121.052 106.747 112.897C106.69 112.483 106.703 112.062 106.786 111.653C107.133 111.861 107.458 112.102 107.758 112.372C108.596 113.266 109.42 114.174 110.243 115.081C110.461 115.321 110.679 115.561 110.897 115.801C110.617 115.298 110.35 114.785 110.083 114.272C109.379 112.922 108.675 111.572 107.752 110.397C105.245 107.2 104.96 103.498 104.672 99.7704C104.647 99.451 104.623 99.1314 104.597 98.8119C104.448 97.0246 105.419 97.4715 106.359 98.0219C107.273 98.5529 108.182 99.0944 109.09 99.6358C109.345 99.7876 109.6 99.9395 109.855 100.091C111.639 101.152 113.428 102.201 115.267 103.157C117.116 103.998 119.016 104.722 120.955 105.326C120.692 105.86 120.419 106.39 120.146 106.92C119.511 108.153 118.876 109.387 118.364 110.669ZM84.5645 85.1158L84.4868 85.0446C84.5127 85.0656 84.5386 85.0866 84.5645 85.1077V85.0835C81.9471 80.8548 81.0337 76.3154 82.6533 71.5817C83.2923 69.7892 84.2491 68.1264 85.478 66.6731C86.8385 65.0218 88.6979 65.3326 90.486 66.2198C90.8562 65.8706 91.1154 65.4201 91.2311 64.9246C91.1222 64.4102 90.8707 63.9367 90.5054 63.5583C88.8793 61.3371 89.7345 60.0938 92.0798 59.3944H92.015C97.0294 58.9476 102.037 58.4231 107.058 58.1511C107.654 58.1187 108.38 59.4268 108.95 60.1844C109.734 61.24 110.434 62.3473 111.166 63.4223C111.794 64.2499 112.372 65.115 112.896 66.0126C114.418 68.9655 115.669 72.0803 117.392 74.9102C119.893 79.0028 123.968 80.68 128.587 80.9844C133.097 81.2871 137.565 79.9611 141.179 77.2477C144.792 74.5342 147.311 70.6139 148.276 66.2004C148.345 65.7759 148.449 65.3579 148.587 64.9505C148.794 64.5272 149.03 64.1183 149.293 63.7267C149.588 64.013 149.867 64.3157 150.128 64.6332C151.868 66.8803 153.586 69.1294 155.283 71.3807C155.29 71.3851 155.298 71.3895 155.305 71.3939L155.298 71.4008C155.324 71.4352 155.35 71.4696 155.376 71.504H155.201L155.298 71.4008C155.293 71.3941 155.288 71.3874 155.283 71.3807C153.833 70.4978 152.389 69.6087 150.932 68.7388C150.582 68.5316 150.193 68.3827 149.824 68.2078C149.818 68.6916 149.893 69.173 150.044 69.6325C150.481 70.4984 151.006 71.3166 151.612 72.0738C153.825 74.7509 153.821 74.7547 151.505 77.3856L151.495 77.3968C150.89 78.1815 150.344 79.0105 149.863 79.877C150.789 79.5014 151.904 79.3525 152.61 78.7049C153.984 77.5189 155.207 76.1683 156.251 74.6835C156.931 73.7057 157.249 73.7899 158.227 74.2237C160.753 75.3181 163.41 76.147 165.936 77.2608C166.584 77.5393 167.394 78.543 167.342 79.1453C166.753 85.9318 164.459 91.9024 158.92 96.2929C153.562 100.541 147.382 102.445 140.663 102.853C132.753 103.332 124.907 103.073 117.34 100.405C112.384 98.663 107.901 96.1634 104.609 91.9477C103.709 90.6662 102.878 89.3367 102.122 87.9651C100.943 88.8608 99.7192 89.6951 98.4547 90.4648C95.8438 91.8959 93.1228 91.5397 90.7581 90.0438C88.5381 88.6433 86.615 86.7755 84.5645 85.1077V85.1158ZM99.0508 41.6899C102.697 41.1679 106.329 40.559 109.218 40.0746L109.22 40.0744L109.221 40.0741C110.274 39.8977 111.227 39.7378 112.047 39.6047V39.5723C119.93 40.6023 125.469 38.833 130.976 37.0741C131.112 37.0304 131.249 36.9868 131.386 36.9432C132.695 36.5071 134.058 36.2447 135.423 35.9821C136.166 35.8392 136.909 35.6962 137.644 35.525C138.87 35.2442 140.094 34.9475 141.318 34.6508C143.114 34.2152 144.911 33.7797 146.714 33.3945C149.193 32.8333 151.681 32.3088 154.178 31.8209C154.676 31.7246 155.197 31.6854 155.716 31.6464C156.627 31.5779 157.53 31.51 158.285 31.1345C160.585 29.9818 161.609 30.6165 162.127 32.9671C163.306 38.316 164.543 43.6585 165.781 48.9945C166.124 50.458 165.774 51.2286 164.109 51.2998C163.001 51.3453 161.894 51.4549 160.786 51.5645C159.532 51.6887 158.278 51.8128 157.022 51.8438C154.8 51.8891 152.843 52.0445 151.418 54.188C150.336 55.8198 148.787 55.5349 147.699 54.0261C146.313 52.1028 144.466 51.8956 142.302 51.9603C137.925 52.0756 133.548 52.1626 129.17 52.2495H129.169C123.959 52.3531 118.748 52.4566 113.537 52.6079C110.541 52.687 107.551 52.903 104.558 53.1192C103.384 53.204 102.209 53.2889 101.033 53.3655C98.9083 53.5015 97.5866 52.99 97.6514 50.3997C97.6789 49.3883 97.4001 48.377 97.1197 47.3598C96.9369 46.6967 96.7534 46.0312 96.6537 45.3616C96.3751 43.5095 96.699 42.0266 99.0508 41.6899ZM117.832 15.1914H118.156V15.159C127.596 14.0257 135.558 16.9981 142.153 23.7134C142.503 24.0678 142.814 24.4616 143.125 24.8555C143.268 25.0373 143.412 25.2191 143.559 25.397C142.879 25.8432 142.145 26.2021 141.376 26.4655C136.161 27.4887 131.023 27.5664 126.643 23.9594C120.268 18.7077 112.76 16.9074 104.771 16.4153C104.664 16.4251 104.555 16.4251 104.448 16.4153C104.187 16.3523 103.929 16.2832 103.672 16.2143C103.559 16.1839 103.446 16.1536 103.333 16.1239C103.469 16.1061 103.603 16.0848 103.735 16.0636C104.037 16.0154 104.332 15.9684 104.629 15.9684L117.832 15.1914ZM4.25515 61.2659C4.73258 61.155 5.22418 61.1179 5.71285 61.1558C8.70599 61.1623 11.1614 62.7294 13.0596 65.0347C14.6128 66.9209 16.0878 68.8852 17.5628 70.8494C17.8906 71.2859 18.2184 71.7224 18.5471 72.158C19.3051 73.1941 18.411 76.8593 17.2513 77.1702C16.9598 77.2479 16.4091 76.7428 16.1176 76.3931C15.3581 75.4643 14.6181 74.5182 13.8782 73.5722C12.3585 71.6293 10.8393 69.687 9.15302 67.897C8.13818 66.8255 6.86117 65.9953 5.58867 65.1679C4.98464 64.7752 4.38161 64.3831 3.80813 63.9662C3.38598 63.6565 3.00119 63.3001 2.61492 62.9423C2.44395 62.784 2.27268 62.6253 2.09776 62.4704C2.79522 62.0313 3.51535 61.6292 4.25515 61.2659ZM96.7379 29.8717L96.8416 30.2603C97.1535 30.2136 97.4712 30.2201 97.781 30.2797C98.8283 30.6754 99.8601 31.1021 100.894 31.5298C100.896 31.5303 100.897 31.5309 100.898 31.5314C101.2 31.6562 101.502 31.781 101.804 31.9051C101.487 32.0231 101.17 32.1401 100.853 32.2572C99.95 32.5902 99.0466 32.9234 98.1503 33.278C96.3708 33.9773 94.5978 34.6961 92.8313 35.4344C92.5363 35.5598 92.2353 35.7294 91.9349 35.8986C91.3513 36.2273 90.7702 36.5547 90.2398 36.5547C89.6826 36.5547 89.1253 36.1808 88.5681 35.8069C88.322 35.6418 88.0759 35.4766 87.8298 35.3437C87.9684 35.1993 88.104 35.0525 88.2394 34.9061C88.5533 34.5666 88.8657 34.2287 89.2097 33.9255C89.5292 33.7043 89.8726 33.5196 90.2334 33.3751C89.8233 33.35 89.4159 33.2915 89.0154 33.2002C88.6763 33.0549 88.3511 32.8793 88.0436 32.6757C88.1206 32.6175 88.1949 32.5499 88.2691 32.4824C88.426 32.3397 88.5824 32.1975 88.7627 32.1447C91.0851 31.4653 93.4075 30.8106 95.7342 30.1547L95.7348 30.1546C95.9337 30.0985 96.1327 30.0424 96.3317 29.9863C96.4671 29.9481 96.6025 29.9099 96.7379 29.8717Z" fill="#333333"/>
<path d="M28.0744 66.3638L34.0138 75.9272L35.1211 79.5512C32.9378 77.8675 27.873 67.9709 27.873 67.1691L28.0744 66.3638Z" fill="#333333"/>
<path d="M97.4765 11.8242L95.3968 12.8927L95.332 12.9639L97.5283 11.8825L97.4765 11.8242Z" fill="#333333"/>
<path d="M217.001 121.522H217.202L217.046 121.555L217.001 121.522Z" fill="#333333"/>
<path d="M219.923 122.17L219.871 122.008L220.001 122.092L219.923 122.17Z" fill="#333333"/>
<path d="M219.664 117.663L219.761 117.572L219.69 117.734L219.664 117.663Z" fill="#333333"/>
<path d="M219.871 114.736L219.897 114.865L219.961 114.8L219.871 114.736Z" fill="#333333"/>
<path d="M84.3638 23.979L84.4545 24.1733L84.4286 24.0373L84.3638 23.979Z" fill="#333333"/>
<path d="M95.3968 12.8926L95.4292 13.1257L95.332 12.9638L95.3968 12.8926Z" fill="#333333"/>
<path d="M146.04 87.6867C145.723 87.6478 145.393 87.6219 145.095 87.5636L142.257 87.0002C143.054 86.0742 143.676 84.7467 144.686 84.2869C147.686 82.9205 150.744 83.594 153.659 84.8438C154.851 85.3489 154.819 86.139 153.575 86.4692C151.113 87.0844 148.599 87.5053 146.105 88.004L146.04 87.6867Z" fill="#333333"/>
<path d="M93.8227 76.4254C95.8829 77.7206 96.9843 82.3636 95.3905 83.8077C94.9694 84.1898 93.6348 83.6329 92.7472 83.4257C92.1036 83.2345 91.4719 83.0053 90.8555 82.7392C91.5033 82.3572 92.1512 81.6837 92.8509 81.6448C94.937 81.5218 95.086 80.4468 94.5677 78.8344C94.3086 78.0314 94.1142 77.209 93.9199 76.3931L93.8227 76.4254Z" fill="#333333"/>
<path d="M92.993 72.8897L91.7945 74.2496C91.1886 73.7713 90.6387 73.226 90.1554 72.6242C90.0387 72.4429 90.6218 71.7954 90.8875 71.3291L92.993 72.8897Z" fill="#333333"/>
<path d="M88.2317 80.6604C87.9725 79.9351 87.7004 79.566 87.7782 79.294C87.9692 78.8498 88.2199 78.4337 88.5232 78.0571C88.7888 78.4198 89.2812 78.7954 89.2618 79.1386C89.2423 79.4818 88.7694 79.9092 88.2317 80.6604Z" fill="#333333"/>
<path d="M85.7955 75.4804L85.3225 76.3805C85.1541 76.2186 84.8496 76.0437 84.8561 75.8819C84.9159 75.59 85.0326 75.3128 85.1994 75.0659L85.7955 75.4804Z" fill="#333333"/>
<path d="M92.002 59.3879L92.5462 59.252L92.3453 59.3102L92.0667 59.3556L92.002 59.3879Z" fill="#333333"/>
<path d="M91.9241 62.1533L91.6196 62.2375L91.8593 62.1922L91.9241 62.1533Z" fill="#333333"/>
<path d="M93.8875 76.3931L92.2808 76.5226L92.3585 76.5938L93.8162 76.4254L93.8875 76.3931Z" fill="#333333"/>
<path d="M92.2808 76.5229L92.3585 76.5942L92.2808 76.5229Z" fill="#333333"/>
<path d="M84.5646 85.0835L84.6229 84.9346L84.4868 85.0123L84.5646 85.0835Z" fill="#333333"/>
<path d="M35.061 79.6309L35.21 79.851L35.1064 79.6891L35.061 79.6309Z" fill="#333333"/>
<path d="M111.069 116.134L112.203 118.207L112.287 118.129C111.898 117.481 111.516 116.762 111.134 116.083L111.069 116.134Z" fill="#333333"/>
<path d="M115.986 117.637L116.102 118.841C116.064 118.64 116.018 118.446 115.999 118.245C115.979 118.045 115.999 117.857 115.999 117.663L115.986 117.637Z" fill="#333333"/>
<path d="M113.518 120.02L113.187 118.615L113.097 118.705L113.434 120.001L113.518 120.02Z" fill="#333333"/>
<path d="M114.438 120.693L114.586 120.894L114.509 120.667L114.438 120.693Z" fill="#333333"/>
<path d="M114.509 120.668L113.518 120.02H113.434L114.438 120.668H114.509Z" fill="#333333"/>
<path d="M112.203 118.207L113.097 118.705L113.187 118.615L112.287 118.129L112.203 118.207Z" fill="#333333"/>
<path d="M135.422 121.522L137.132 120.81L137.081 120.745L135.364 121.522H135.422Z" fill="#333333"/>
<path d="M135.364 121.522L134.91 121.483H135.422L135.364 121.522Z" fill="#333333"/>
<path d="M37.9375 103.28C37.7042 102.814 37.4451 102.354 37.2378 101.875C37.0305 101.396 36.7713 100.716 36.5381 100.14C37.024 100.004 37.6978 99.6086 37.9569 99.7899C38.4882 100.178 39.149 100.891 39.1101 101.428C39.0712 101.966 38.3392 102.613 37.9051 103.209L37.9375 103.28Z" fill="#333333"/>
<path d="M37.9052 103.209L36.5317 102.924L36.7002 102.509L37.9376 103.28L37.9052 103.209Z" fill="#333333"/>
</svg>
