<svg width="171" height="36" viewBox="0 0 171 36" fill="none" xmlns="http://www.w3.org/2000/svg">
<path d="M17.9712 35.0712C13.7095 35.0711 9.60193 33.4772 6.45548 30.6029C3.30903 27.7286 1.35118 23.7815 0.966614 19.5372C1.32661 20.2878 1.57321 21.0654 1.88821 21.8232C2.95413 24.3978 4.75414 26.6017 7.06392 28.1604C9.3737 29.7191 12.0911 30.5636 14.8775 30.5886C17.6639 30.6137 20.396 29.8182 22.7335 28.3012C25.0709 26.7843 26.9102 24.6131 28.0222 22.0581C29.1342 19.5031 29.4698 16.6773 28.987 13.9329C28.5042 11.1886 27.2245 8.64697 25.3073 6.62486C23.39 4.60276 20.9201 3.18957 18.2054 2.56142C15.4906 1.93327 12.651 2.11794 10.0404 3.0924C10.4395 2.70859 10.9165 2.41515 11.439 2.232C13.77 1.26927 16.2853 0.835135 18.8041 0.96081C21.3229 1.08648 23.7826 1.76885 26.0061 2.95882C28.2297 4.14879 30.1619 5.81678 31.6637 7.8428C33.1655 9.86882 34.1996 12.2025 34.6916 14.676C35.1836 17.1495 35.1213 19.7013 34.5091 22.1478C33.897 24.5943 32.7502 26.8747 31.1513 28.825C29.5524 30.7754 27.5411 32.3471 25.2622 33.4271C22.9832 34.5071 20.4932 35.0686 17.9712 35.0712Z" fill="#FBF6BD"/>
<path d="M17.9604 1.02421C21.2498 1.02524 24.468 1.98256 27.2232 3.77963C29.9784 5.5767 32.1518 8.136 33.4786 11.146C34.8055 14.1559 35.2287 17.4867 34.6967 20.7329C34.1647 23.9791 32.7005 27.0005 30.4823 29.4295C28.264 31.8585 25.3875 33.5902 22.2028 34.4138C19.0181 35.2374 15.6627 35.1175 12.545 34.0685C9.42725 33.0194 6.68175 31.0867 4.64268 28.5055C2.60361 25.9242 1.35894 22.8059 1.06019 19.53C1.6512 22.1559 2.97189 24.5615 4.87016 26.4697C6.76844 28.3779 9.16709 29.7111 11.7899 30.3158C14.4127 30.9205 17.1529 30.772 19.695 29.8876C22.2372 29.0031 24.4778 27.4186 26.1588 25.3165C27.8399 23.2145 28.893 20.6803 29.1969 18.0059C29.5008 15.3316 29.0431 12.6257 27.8766 10.2001C26.7101 7.77438 24.8821 5.72753 22.6033 4.29523C20.3244 2.86293 17.6874 2.10343 14.9958 2.10421C13.2939 2.10353 11.6057 2.40837 10.0116 3.00421C10.4832 2.75761 10.98 2.52001 11.475 2.31841C13.529 1.46563 15.7309 1.02586 17.955 1.02421H17.9604ZM17.955 0.844206C15.7042 0.842494 13.4753 1.28728 11.3976 2.15281C10.8972 2.35981 10.3986 2.59381 9.91798 2.84761L10.071 3.18961C12.7596 2.18696 15.6901 2.02873 18.471 2.73607C21.252 3.44341 23.7508 4.98263 25.6335 7.14803C27.5163 9.31343 28.6934 12.0019 29.0075 14.8541C29.3215 17.7063 28.7576 20.5865 27.3911 23.1096C26.0246 25.6328 23.9206 27.6789 21.3602 28.9744C18.7998 30.2698 15.9051 30.7531 13.0627 30.3594C10.2204 29.9658 7.56588 28.7141 5.45392 26.7716C3.34197 24.829 1.87316 22.2882 1.24379 19.4886L0.872986 19.548C1.17356 22.8627 2.4315 26.0184 4.49361 28.6309C6.55573 31.2434 9.33302 33.1998 12.4872 34.262C15.6415 35.3242 19.0365 35.4462 22.2588 34.6133C25.4812 33.7804 28.3918 32.0284 30.6362 29.5708C32.8806 27.1131 34.3619 24.0558 34.8997 20.7713C35.4375 17.4868 35.0087 14.1168 33.6653 11.0716C32.322 8.02652 30.1221 5.43773 27.3337 3.62057C24.5453 1.80341 21.2886 0.836293 17.9604 0.837006L17.955 0.844206Z" fill="#5F2521"/>
<path d="M11.853 33.7482C11.3361 33.5942 10.8343 33.3935 10.3536 33.1488C10.278 32.6988 9.9792 32.3982 9.5292 32.1732C9.1548 32.0238 8.7786 31.9482 8.478 32.0994C8.24579 31.965 8.04215 31.7865 7.8786 31.5738C8.64472 31.327 9.47596 31.3804 10.2042 31.7232C10.6235 31.9004 10.9931 32.1776 11.2805 32.5306C11.5679 32.8836 11.7645 33.3017 11.853 33.7482Z" fill="#FDD783"/>
<path d="M28.4274 4.65122C28.4133 4.88284 28.3623 5.11073 28.2762 5.32622C28.1975 5.53193 28.0776 5.71944 27.924 5.87728C27.7704 6.03512 27.5862 6.15997 27.3827 6.2442C27.1792 6.32844 26.9606 6.37029 26.7404 6.3672C26.5201 6.3641 26.3028 6.31613 26.1018 6.22621C25.2774 5.92562 24.9768 4.87622 25.353 4.05182C25.578 3.60182 25.8768 3.30122 26.253 3.22742C26.3878 3.28468 26.5143 3.35975 26.6292 3.45062C26.3286 3.45062 25.9542 3.75122 25.8048 4.05182C25.7347 4.1675 25.6905 4.29702 25.6754 4.43144C25.6603 4.56585 25.6745 4.70195 25.7171 4.83032C25.7597 4.95869 25.8297 5.07628 25.9222 5.17495C26.0148 5.27362 26.1276 5.35103 26.253 5.40182C26.703 5.62682 27.3042 5.40182 27.5292 4.80062C27.5958 4.68892 27.637 4.5639 27.6497 4.43446C27.6625 4.30503 27.6465 4.17437 27.603 4.05182C27.9071 4.20783 28.1852 4.41003 28.4274 4.65122Z" fill="#FDD783"/>
<path d="M19.6524 32.6232C19.2024 33.7482 17.478 34.1226 15.8274 33.3738C14.4774 32.7726 13.653 31.6494 13.7286 30.5982C14.328 30.6738 14.8536 30.7494 15.3774 30.6738C15.228 31.2732 15.8274 32.0238 16.6536 32.3982C17.6274 32.8482 18.6786 32.6232 18.9774 31.8744C19.2024 31.3488 18.9774 30.7494 18.4536 30.2994C18.603 30.2238 18.7524 30.2238 18.9036 30.1482C19.728 30.8988 20.0268 31.8744 19.6524 32.6232Z" fill="#FDD783"/>
<path d="M30.7332 17.0244C30.2832 17.2494 29.7576 17.2494 29.2338 17.1756C29.3832 16.3494 29.3076 15.6006 29.2338 14.7762C29.5328 14.8631 29.8534 14.8362 30.1338 14.7006C31.2588 14.2506 31.7088 12.7512 31.1832 11.3256C30.6576 9.97562 29.2338 9.22502 28.1088 9.67682C27.9576 9.75062 27.8838 9.82622 27.7326 9.90002C27.5838 9.60122 27.4338 9.30122 27.2826 9.00002V8.92622C27.3234 8.88516 27.3765 8.85861 27.4338 8.85062C29.3076 8.17562 31.4838 9.37622 32.382 11.6262C33.2802 13.8762 32.6088 16.2756 30.7332 17.0244Z" fill="#FDD783"/>
<path d="M33.6006 24.4494C33.3018 25.425 32.7762 26.325 32.2506 27.1494C31.4262 25.7238 29.4012 25.3494 27.6012 26.325C25.8768 27.2988 25.0524 29.2482 25.8768 30.6738C26.1774 31.3488 26.8524 31.7988 27.6012 31.9482C27.0965 32.3439 26.5422 32.6719 25.9524 32.9238C25.5024 32.6232 25.2018 32.1732 24.903 31.7232C23.6268 29.3994 24.903 26.2494 27.7524 24.6744C29.7774 23.5494 32.0274 23.5494 33.6006 24.4494Z" fill="#FDD783"/>
<path d="M20.0088 23.454L25.8984 16.1226C27.018 16.2288 26.6616 17.1108 26.6616 17.1108L20.979 24.2082" fill="#FBF6BD"/>
<path d="M22.9698 30.5712L14.22 21.6L16.668 23.4198L15.7122 22.0302L16.9866 22.9734C17.7822 21.7854 18.4914 22.0176 18.4914 22.0176L25.524 28.6776C25.524 28.6776 25.5942 30.9276 22.9698 30.5712Z" fill="#FBF6BD"/>
<path d="M26.4078 17.4276C26.037 16.8426 25.9164 17.001 25.8822 17.1C25.848 17.199 24.3594 19.0134 24.3594 19.0134L24.12 18.441L25.38 16.7706L25.902 16.1226C25.902 16.1226 26.2962 16.0596 26.4888 16.317C26.6134 16.52 26.6858 16.7506 26.6994 16.9884L26.4114 17.4276" fill="#CE4E25"/>
<path d="M23.6844 20.88C23.3442 20.2752 23.2164 20.4282 23.175 20.52C23.1336 20.6118 21.555 22.3506 21.555 22.3506L21.348 21.78L22.689 20.178L23.2452 19.5588C23.2452 19.5588 23.6412 19.5174 23.8194 19.7838C23.9353 19.992 23.9972 20.2259 23.9994 20.4642L23.6844 20.88Z" fill="#CE4E25"/>
<path d="M21.186 23.949L20.9106 24.309L20.0106 23.4558L20.2644 23.1516L20.8188 22.5324C20.9252 22.5275 21.0315 22.545 21.1307 22.5838C21.2299 22.6226 21.3199 22.6817 21.3948 22.7574C21.4756 22.8491 21.5339 22.9583 21.5652 23.0764C21.5964 23.1945 21.5997 23.3182 21.5748 23.4378C21.4476 23.6058 21.318 23.7762 21.186 23.949Z" fill="#CE4E25"/>
<path d="M25.3566 28.5372C25.4502 28.6308 25.4916 28.638 25.515 28.6992C25.5423 28.7723 25.5423 28.8529 25.515 28.926C25.4812 29.2005 25.3912 29.4651 25.2506 29.7033C25.11 29.9414 24.9218 30.148 24.6978 30.3102C24.4476 30.4786 24.1631 30.5894 23.8649 30.6345C23.5667 30.6797 23.2622 30.658 22.9734 30.5712C20.055 27.5832 17.1372 24.5928 14.22 21.6L16.8498 23.5332L15.9768 22.32L17.8704 24.2856L17.4078 24.1902C17.9011 25.0528 18.5769 25.7974 19.3878 26.3718C19.7279 26.61 20.0895 26.8161 20.4678 26.9874L20.9682 27.6246L20.448 27.468L22.86 29.709L21.1932 27.7848L23.1426 29.0736L22.4334 27.9468L23.634 28.7658L21.9798 26.7678L23.9094 28.1664L19.188 22.6692C22.401 25.6986 24.7464 27.9162 24.9156 28.0836C25.02 28.188 25.1136 28.287 25.3566 28.5372Z" fill="#CE4E25"/>
<path fill-rule="evenodd" clip-rule="evenodd" d="M14.1484 21.6698L14.2796 21.5197L16.2442 22.9802L15.2906 21.5938L16.9628 22.8314C17.3488 22.285 17.7185 22.049 18.0062 21.9549C18.1569 21.9057 18.2824 21.8963 18.3722 21.9C18.417 21.9018 18.4528 21.9068 18.4782 21.9117C18.491 21.9142 18.5011 21.9166 18.5085 21.9185L18.5176 21.9211L18.5206 21.922L18.5217 21.9223C18.5218 21.9223 18.5225 21.9226 18.4914 22.0176L18.5217 21.9223L18.5438 21.9296L25.6226 28.6333L25.6239 28.6745L25.524 28.6776C25.6239 28.6745 25.6239 28.6744 25.6239 28.6745L25.624 28.677L25.6241 28.6828L25.6241 28.7036C25.624 28.7213 25.6234 28.7468 25.6217 28.7789C25.6183 28.8428 25.6105 28.9332 25.5926 29.0401C25.5568 29.2535 25.4804 29.5365 25.3168 29.8095C25.1525 30.0835 24.9005 30.3468 24.5166 30.5171C24.1334 30.6871 23.6262 30.7613 22.9563 30.6703L22.9222 30.6657L14.1484 21.6698ZM25.4238 28.7205L18.4418 22.1084C18.4414 22.1083 18.4409 22.1082 18.4404 22.1081C18.424 22.105 18.3982 22.1012 18.3641 22.0998C18.296 22.097 18.1945 22.1038 18.0684 22.1451C17.8174 22.2271 17.4579 22.4493 17.0697 23.029L17.0113 23.1161L16.1337 22.4666L17.0917 23.8594L15.17 22.4308L23.0172 30.4766C23.6421 30.5567 24.0998 30.4832 24.4355 30.3343C24.7765 30.183 24.999 29.9505 25.1452 29.7066C25.2921 29.4616 25.3622 29.2045 25.3953 29.0071C25.4118 28.9087 25.419 28.826 25.422 28.7683C25.423 28.7496 25.4235 28.7336 25.4238 28.7205Z" fill="#5F2521"/>
<path fill-rule="evenodd" clip-rule="evenodd" d="M18.2065 24.6798C18.2581 24.6577 18.3179 24.6583 18.3757 24.6675L18.3761 24.6675L18.3761 24.6675C18.6017 24.7044 18.8589 24.8611 19.1052 25.0613C19.355 25.2643 19.6067 25.5229 19.8226 25.7817C20.038 26.0402 20.2211 26.3029 20.3312 26.5153C20.3858 26.6205 20.426 26.72 20.4404 26.8038C20.4536 26.8803 20.4515 26.9914 20.3535 27.0473C20.3005 27.0775 20.2414 27.0712 20.1983 27.0605C20.152 27.0491 20.1019 27.027 20.051 26.9995C19.9486 26.9442 19.8257 26.8573 19.694 26.7522C19.4298 26.541 19.1175 26.2457 18.8411 25.9498C18.566 25.6553 18.3201 25.3534 18.1936 25.1291C18.1617 25.0725 18.1358 25.0181 18.1192 24.9679C18.1031 24.9196 18.0923 24.8655 18.1013 24.8139C18.1115 24.7551 18.1469 24.7053 18.2065 24.6798ZM20.2466 26.8664C20.2464 26.8595 20.2455 26.8502 20.2433 26.8378C20.2341 26.7841 20.2049 26.7061 20.1537 26.6074C20.0524 26.4122 19.8789 26.1617 19.6689 25.9098C19.4593 25.6584 19.2166 25.4096 18.9791 25.2165C18.7382 25.0208 18.5154 24.893 18.3441 24.8649M20.2466 26.8664C20.2465 26.8664 20.2464 26.8664 20.2463 26.8664C20.2232 26.8607 20.1899 26.8473 20.1461 26.8236C20.059 26.7765 19.9468 26.6981 19.8189 26.5959C19.5639 26.3922 19.2587 26.1039 18.9872 25.8133C18.7144 25.5212 18.4821 25.2335 18.3679 25.0308C18.3396 24.9807 18.3202 24.9385 18.309 24.9048C18.3024 24.885 18.2996 24.8709 18.2986 24.8617M20.2456 26.8813C20.2452 26.8831 20.2448 26.8838 20.2447 26.8836C20.2446 26.8835 20.2448 26.8827 20.2456 26.8813Z" fill="#5F2521"/>
<path fill-rule="evenodd" clip-rule="evenodd" d="M25.8542 16.018L25.9079 16.0231C26.2006 16.0508 26.4084 16.1304 26.5518 16.2432C26.6966 16.3572 26.7679 16.499 26.7976 16.6353C26.8268 16.7697 26.8155 16.8977 26.7981 16.9899C26.7893 17.0364 26.7787 17.0751 26.7702 17.1024C26.766 17.1161 26.7622 17.127 26.7594 17.1348L26.756 17.144L26.7549 17.1468L26.7544 17.148C26.7544 17.1481 26.7543 17.1483 26.6616 17.1108L26.7544 17.148L26.7488 17.1619L21.0571 24.2707C21.0226 24.3138 20.9596 24.3208 20.9165 24.2863C20.8734 24.2518 20.8664 24.1888 20.901 24.1457L26.5733 17.0611C26.575 17.0563 26.577 17.0502 26.5792 17.043C26.5859 17.0217 26.5944 16.9906 26.6015 16.9528C26.616 16.8763 26.6238 16.7772 26.6021 16.6778C26.5809 16.5803 26.5314 16.4817 26.4281 16.4004C26.3306 16.3236 26.1785 16.2571 25.9421 16.228L20.0868 23.5166C20.0522 23.5597 19.9892 23.5666 19.9462 23.532C19.9031 23.4974 19.8963 23.4344 19.9309 23.3914L25.8542 16.018Z" fill="#5F2521"/>
<path d="M9.28618 19.422C9.43558 19.818 9.62818 20.322 9.99358 20.3886C10.0877 20.3992 10.183 20.3863 10.2709 20.3511C10.3588 20.316 10.4367 20.2596 10.4976 20.187C10.6776 19.9746 10.6218 19.6776 10.5786 19.4454C10.5246 19.152 10.4382 19.0854 10.2384 18.5454C10.1772 18.3798 10.152 18.2934 10.0998 18.1296C9.95398 17.6814 9.75238 17.0496 9.55978 16.6302C9.13858 15.6924 8.76238 15.7086 8.41138 14.8122C8.29569 14.5156 8.21592 14.2062 8.17378 13.8906C8.02052 14.4237 7.95546 14.9782 7.98118 15.5322C7.99558 15.8436 8.04778 16.9128 8.62198 17.8038C8.76917 18.0106 8.89578 18.2312 8.99998 18.4626C9.17998 18.8838 9.12598 18.9936 9.28618 19.422Z" fill="#EEF2EB"/>
<path d="M10.0692 20.4858C10.0399 20.4894 10.0103 20.4894 9.98099 20.4858C9.57059 20.421 9.36539 19.9044 9.20519 19.4904V19.4652C9.14745 19.3127 9.10289 19.1555 9.07199 18.9954C9.04036 18.8268 8.989 18.6625 8.91899 18.5058C8.83755 18.316 8.73682 18.135 8.61839 17.9658L8.55359 17.8668C8.15759 17.262 7.93799 16.4826 7.89299 15.5484C7.87143 14.9835 7.93823 14.4187 8.09099 13.8744L8.20799 13.4388L8.27459 13.8852C8.32061 14.1926 8.39905 14.4943 8.50859 14.7852C8.63284 15.1099 8.8159 15.4089 9.04859 15.6672C9.30163 15.9415 9.50724 16.256 9.65699 16.5978C9.82619 16.9812 10.0008 17.5194 10.1394 17.9514L10.1916 18.1062C10.242 18.27 10.2726 18.3546 10.3302 18.5166C10.4184 18.765 10.485 18.9108 10.5354 19.0296C10.6023 19.1587 10.6519 19.2961 10.683 19.4382V19.476C10.7262 19.7064 10.7694 20.016 10.5804 20.2554C10.5163 20.3278 10.4376 20.3857 10.3495 20.4254C10.2614 20.4651 10.1658 20.4857 10.0692 20.4858ZM9.37259 19.3914V19.413C9.52019 19.7874 9.69479 20.2446 10.0026 20.2968C10.0224 20.2984 10.0422 20.2984 10.062 20.2968C10.1312 20.2935 10.199 20.2757 10.261 20.2448C10.3229 20.2138 10.3778 20.1702 10.422 20.1168C10.5624 19.9476 10.5246 19.7028 10.4886 19.4868C10.4603 19.349 10.4162 19.2149 10.3572 19.0872C10.2776 18.9163 10.2068 18.7415 10.1448 18.5634C10.0854 18.396 10.0566 18.3114 10.0044 18.1458L9.95399 17.9928C9.81576 17.5407 9.65415 17.0961 9.46979 16.6608C9.3304 16.3342 9.13756 16.0331 8.89919 15.7698C8.64556 15.4992 8.44905 15.1802 8.32139 14.832C8.25445 14.6672 8.20029 14.4975 8.15939 14.3244C8.08563 14.7177 8.05605 15.118 8.07119 15.5178C8.08347 16.3011 8.30067 17.0675 8.70119 17.7408L8.76059 17.8398C8.88626 18.0216 8.99415 18.2151 9.08279 18.4176C9.15856 18.5846 9.2124 18.7606 9.24299 18.9414C9.27322 19.0919 9.31474 19.2399 9.36719 19.3842L9.37259 19.3914Z" fill="#5F2521"/>
<path d="M10.1052 11.5686C9.9255 11.3777 9.77067 11.1648 9.64441 10.935C9.27181 10.215 8.946 8.98203 9.57421 8.07483C9.97021 7.50603 10.728 7.07403 11.1114 7.27383C11.3796 7.41243 11.3436 7.79583 11.6802 7.91103C11.9304 7.99743 12.0744 7.82823 12.3642 7.88223C12.5045 7.92225 12.635 7.99089 12.7474 8.08383C12.8599 8.17677 12.9519 8.29199 13.0176 8.42223" fill="#EEF2EB"/>
<path d="M10.0314 11.628L10.1052 11.5668L10.0314 11.628C9.84524 11.4355 9.68763 11.2173 9.56341 10.98C9.12421 10.1376 8.87581 8.92262 9.49681 8.02082C9.82801 7.54922 10.4274 7.13162 10.881 7.13162C10.9783 7.13072 11.0742 7.15424 11.16 7.20002C11.2873 7.28062 11.3871 7.398 11.4462 7.53662C11.468 7.60223 11.5033 7.66256 11.5498 7.71371C11.5963 7.76486 11.653 7.80571 11.7162 7.83362C11.8107 7.85716 11.91 7.85342 12.0024 7.82282C12.1262 7.78993 12.2553 7.78197 12.3822 7.79942C12.654 7.84802 12.888 8.03882 13.1022 8.37902C13.1092 8.38947 13.1139 8.40122 13.1162 8.41355C13.1185 8.42589 13.1184 8.43856 13.1157 8.45082C13.113 8.46308 13.1079 8.47467 13.1006 8.48491C13.0933 8.49515 13.0841 8.50382 13.0734 8.51042C13.0513 8.51999 13.0267 8.52235 13.0031 8.51719C12.9795 8.51202 12.9581 8.49958 12.942 8.48162C12.762 8.18462 12.5604 8.02262 12.348 7.98302C12.2476 7.96417 12.1441 7.97161 12.0474 8.00462C11.9193 8.04616 11.7813 8.04616 11.6532 8.00462C11.5663 7.97106 11.4874 7.91958 11.4216 7.85352C11.3559 7.78747 11.3048 7.70832 11.2716 7.62122C11.2304 7.5169 11.1589 7.42728 11.0664 7.36382C11.0106 7.33597 10.9488 7.32236 10.8864 7.32422C10.5264 7.32422 9.98641 7.67162 9.66421 8.13242C9.08641 8.96042 9.34201 10.1394 9.73081 10.8936C9.85443 11.1159 10.0043 11.3226 10.1772 11.5092L10.0314 11.628Z" fill="#5F2521"/>
<path d="M12.8646 8.17021C12.4092 7.56001 12.1014 7.20001 12.1212 6.56461C12.1212 6.56461 11.6478 6.99661 11.7144 7.51681C11.781 8.03701 11.052 6.31261 11.853 5.34241C11.7126 5.42161 9.33302 6.78241 9.57422 8.07481C9.63722 8.39701 9.91802 8.97481 10.3122 9.00001C10.4346 8.99499 10.5532 8.95595 10.6546 8.88727C10.756 8.81859 10.8363 8.72299 10.8864 8.61121C10.9292 8.52764 10.9516 8.4351 10.9516 8.34121C10.9516 8.24732 10.9292 8.15477 10.8864 8.07121C10.8441 7.99211 10.7788 7.92772 10.6991 7.88658C10.6193 7.84543 10.529 7.82947 10.44 7.84081C10.3794 7.86111 10.3241 7.89502 10.2786 7.93994C10.233 7.98487 10.1984 8.03962 10.1772 8.10001" fill="#EEF2EB"/>
<path d="M10.332 9.09541H10.3032C9.828 9.07561 9.54 8.39521 9.4824 8.10001C9.2052 6.69601 11.7828 5.27581 11.8116 5.26141L12.2292 5.04001L11.9286 5.40001C11.4822 5.94001 11.5416 6.72481 11.6442 7.18381C11.7194 6.92129 11.8629 6.68341 12.06 6.49441L12.2292 6.34501V6.56821C12.2148 7.12081 12.456 7.44301 12.8592 7.97761L12.9546 8.11261C12.9702 8.13225 12.9774 8.15723 12.9747 8.18216C12.972 8.20709 12.9596 8.22995 12.9402 8.24581C12.8808 8.26741 12.8304 8.26741 12.807 8.22241L12.69 8.10001C12.33 7.62841 12.0906 7.29541 12.0384 6.81481C11.8751 7.01011 11.7938 7.26107 11.8116 7.51501C11.8116 7.56901 11.8332 7.67521 11.7468 7.70761L11.6802 7.73461L11.6064 7.65721C11.4667 7.34029 11.3909 6.99889 11.3835 6.65262C11.3761 6.30634 11.4372 5.96202 11.5632 5.63941C10.8972 6.06781 9.4824 7.10461 9.6732 8.06401C9.7254 8.36461 9.9882 8.90281 10.3104 8.91361H10.332C10.4335 8.90379 10.5305 8.86686 10.6128 8.8067C10.6952 8.74653 10.7598 8.66533 10.8 8.57161C10.8358 8.50298 10.8545 8.42672 10.8545 8.34931C10.8545 8.2719 10.8358 8.19564 10.8 8.12701C10.7707 8.07232 10.7291 8.02516 10.6785 7.98924C10.6279 7.95333 10.5697 7.92963 10.5084 7.92001C10.491 7.91884 10.4736 7.91884 10.4562 7.92001C10.4084 7.93738 10.3656 7.96613 10.3314 8.00376C10.2972 8.0414 10.2727 8.08678 10.26 8.13601L10.08 8.06581C10.1051 7.99163 10.1473 7.92442 10.2033 7.86968C10.2593 7.81494 10.3275 7.77421 10.4022 7.75081C10.4336 7.74406 10.4655 7.74044 10.4976 7.74001C10.592 7.74617 10.6832 7.77637 10.7626 7.82772C10.8419 7.87908 10.9069 7.94988 10.9512 8.03341C11.0053 8.12442 11.0363 8.22734 11.0413 8.33311C11.0463 8.43889 11.0253 8.54428 10.98 8.64001C10.9224 8.76678 10.8319 8.87585 10.718 8.95592C10.6041 9.03599 10.4708 9.08414 10.332 9.09541Z" fill="#5F2521"/>
<path d="M20.997 13.104C20.9139 12.8498 20.777 12.6165 20.5956 12.42C20.1996 11.9988 19.8144 12.0168 19.3464 11.5488C19.2002 11.3983 19.0732 11.2302 18.9684 11.0484C18.6282 10.5084 17.7696 9.16201 16.4682 8.46541C16.3728 8.41501 14.6394 7.52401 12.8682 8.16841L12.7242 8.22421C10.7262 9.05221 10.1826 11.2464 10.1088 11.5668C9.96028 12.2425 9.94377 12.9405 10.0602 13.6224C10.1924 14.5456 10.5316 15.427 11.0524 16.2007C11.5733 16.9743 12.2623 17.6202 13.068 18.09C13.5256 18.3446 14.0198 18.5268 14.5332 18.63C15.3 18.81 15.6744 18.936 16.137 18.81C16.5654 18.6966 16.6464 18.5076 16.9452 18.5526C17.4006 18.6246 17.3916 19.0926 17.8938 19.224C18.2844 19.3212 18.4338 19.0692 18.927 19.2132C19.1808 19.2888 19.2582 19.3932 19.404 19.3572C19.6596 19.2978 19.7874 18.8946 19.854 18.5508" fill="#EEF2EB"/>
<path d="M19.3482 19.4544C19.2686 19.4492 19.1912 19.4265 19.1214 19.3878C19.0485 19.3528 18.9726 19.3245 18.8946 19.3032C18.7189 19.2479 18.5304 19.2479 18.3546 19.3032C18.195 19.3476 18.027 19.3525 17.865 19.3176C17.6457 19.2549 17.4549 19.1182 17.325 18.9306C17.2825 18.8584 17.2253 18.7959 17.1571 18.7472C17.0888 18.6985 17.0111 18.6647 16.929 18.648C16.8662 18.6376 16.8019 18.6401 16.74 18.6552C16.6781 18.6704 16.62 18.6979 16.569 18.7362C16.4365 18.8074 16.2964 18.8635 16.1514 18.9036C15.705 19.026 15.3612 18.9306 14.76 18.783L14.4378 18.7074C13.9391 18.6026 13.46 18.4204 13.0176 18.1674C12.2174 17.705 11.5304 17.0697 11.007 16.308C10.4595 15.5094 10.1013 14.5964 9.95941 13.6386C9.84917 12.9435 9.86625 12.2342 10.0098 11.5452C10.1124 11.1204 10.6992 8.9622 12.6828 8.1396C12.733 8.11627 12.7847 8.09642 12.8376 8.0802C14.6376 7.4178 16.4376 8.3448 16.5132 8.3844C17.8614 9.1044 18.7254 10.4832 19.0476 10.998L19.098 11.0826C19.1881 11.228 19.2937 11.3632 19.413 11.4858C19.6003 11.6657 19.8155 11.814 20.0502 11.925C20.277 12.0303 20.4831 12.1754 20.6586 12.3534C20.8504 12.56 20.9953 12.8056 21.0834 13.0734C21.0874 13.0849 21.089 13.097 21.0883 13.1091C21.0875 13.1212 21.0844 13.133 21.079 13.1439C21.0736 13.1548 21.0662 13.1645 21.0571 13.1725C21.0479 13.1805 21.0373 13.1865 21.0258 13.1904C20.9952 13.2084 20.9304 13.1904 20.907 13.131C20.8302 12.8894 20.7005 12.668 20.5272 12.483C20.3629 12.3208 20.1725 12.1875 19.9638 12.0888C19.7118 11.9698 19.4813 11.8098 19.2816 11.6154C19.1523 11.4856 19.0393 11.3405 18.945 11.1834L18.8856 11.0988C18.5724 10.5912 17.73 9.243 16.425 8.55C16.4034 8.5392 14.6754 7.614 12.8952 8.2548L12.7566 8.3124C10.8522 9.1026 10.2888 11.178 10.2006 11.5884C10.0534 12.2526 10.0363 12.9391 10.1502 13.6098C10.2839 14.5169 10.6198 15.3824 11.1329 16.1423C11.646 16.9022 12.3233 17.537 13.1148 18C13.5453 18.2395 14.0096 18.4125 14.4918 18.513L14.814 18.5904C15.3936 18.7326 15.714 18.8208 16.119 18.711C16.2494 18.6757 16.3746 18.6236 16.4916 18.5562C16.5585 18.508 16.6345 18.4741 16.715 18.4564C16.7955 18.4388 16.8787 18.4378 16.9596 18.4536C17.0646 18.4732 17.1644 18.5143 17.2527 18.5744C17.341 18.6345 17.4159 18.7123 17.4726 18.8028C17.5778 18.9574 17.7328 19.0711 17.9118 19.125C18.0454 19.156 18.1851 19.1491 18.315 19.1052C18.5233 19.0462 18.7439 19.0462 18.9522 19.1052C19.0367 19.1317 19.1197 19.1629 19.2006 19.1988C19.2558 19.2294 19.3175 19.2461 19.3806 19.2474C19.4904 19.2222 19.6524 19.0674 19.755 18.5148C19.7607 18.4935 19.773 18.4745 19.7901 18.4606C19.8073 18.4467 19.8284 18.4386 19.8504 18.4374H19.8648C19.8895 18.4422 19.9114 18.4563 19.9261 18.4766C19.9408 18.497 19.9472 18.5223 19.944 18.5472C19.8414 19.0872 19.6668 19.3716 19.4256 19.4274C19.4011 19.4397 19.3751 19.4488 19.3482 19.4544Z" fill="#5F2521"/>
<path d="M23.4 19.6326C23.4216 19.6758 23.454 19.7352 23.4972 19.8126C23.6502 20.0664 23.8338 20.3688 24.1524 20.4804C24.2175 20.5107 24.2885 20.5263 24.3603 20.5263C24.4321 20.5263 24.5031 20.5107 24.5682 20.4804C24.7608 20.3562 24.7374 20.0304 24.7302 19.9152C24.7095 19.6832 24.6316 19.4599 24.5034 19.2654C24.2807 18.8799 24.0864 18.4786 23.922 18.0648C23.8866 18.4367 23.7944 18.8009 23.6484 19.1448C23.5787 19.3137 23.4956 19.4768 23.4 19.6326Z" fill="#EEF2EB"/>
<path d="M24.3936 20.6226C24.3007 20.6199 24.2091 20.5997 24.1236 20.5632C23.7636 20.439 23.5656 20.1132 23.4036 19.8522C23.3671 19.7948 23.3352 19.7346 23.3082 19.6722L23.2794 19.6272L23.3082 19.5804C23.4 19.4299 23.4806 19.2729 23.5494 19.1106C23.6928 18.7727 23.7821 18.4143 23.814 18.0486L23.85 17.6724L23.9958 18.0324C24.159 18.4441 24.3527 18.843 24.5754 19.2258C24.7122 19.4326 24.7929 19.6714 24.8094 19.9188C24.8238 20.0574 24.8454 20.4174 24.6042 20.5668C24.54 20.6033 24.4675 20.6225 24.3936 20.6226ZM23.508 19.6362C23.5259 19.6771 23.5476 19.7163 23.5728 19.7532C23.7132 19.9926 23.8878 20.2806 24.1812 20.3868C24.2852 20.4328 24.4026 20.4386 24.5106 20.403C24.6726 20.304 24.6348 19.989 24.6276 19.926C24.6123 19.7101 24.5416 19.5018 24.4224 19.3212C24.254 19.029 24.1002 18.7287 23.9616 18.4212C23.9137 18.6859 23.8377 18.9448 23.7348 19.1934C23.6674 19.3451 23.5917 19.4929 23.508 19.6362Z" fill="#5F2521"/>
<path d="M22.4406 13.5576C22.464 13.0961 22.4393 12.6334 22.3668 12.177C22.2606 11.5002 22.1364 11.3958 21.8592 10.4418C21.5622 9.4104 21.5262 8.901 21.1122 7.9038C21.0078 7.6518 20.7522 7.065 20.4966 7.029C20.241 6.993 20.0034 7.3008 19.8558 7.8012C19.643 8.40239 19.6185 9.05414 19.7856 9.6696C20.0556 10.71 20.7918 11.7054 21.0222 11.9826C21.1844 12.1743 21.3117 12.3931 21.3984 12.6288C21.4543 12.7846 21.4911 12.9466 21.5082 13.1112" fill="#EEF2EB"/>
<path d="M22.4388 13.653C22.4138 13.6503 22.3908 13.6382 22.3744 13.6191C22.358 13.6001 22.3495 13.5755 22.3506 13.5504C22.378 13.0967 22.3532 12.6413 22.2768 12.1932C22.2323 11.8855 22.1538 11.5836 22.0428 11.2932C21.969 11.0916 21.8898 10.8504 21.78 10.4724C21.6702 10.0944 21.6 9.8172 21.5298 9.54C21.4087 8.99613 21.2425 8.46329 21.033 7.947C20.7396 7.227 20.5416 7.1334 20.493 7.1262H20.4642C20.2842 7.1262 20.0844 7.398 19.9512 7.8336L19.9368 7.8948C19.7498 8.46371 19.7322 9.07472 19.8864 9.6534C20.2014 10.8396 21.1014 11.9196 21.1086 11.9268C21.2705 12.1291 21.3982 12.3565 21.4866 12.6C21.5445 12.7628 21.5826 12.932 21.6 13.104C21.601 13.1291 21.5925 13.1537 21.5761 13.1727C21.5598 13.1918 21.5368 13.2039 21.5118 13.2066C21.4879 13.2059 21.4651 13.1965 21.4476 13.1803C21.4301 13.1641 21.419 13.1421 21.4164 13.1184C21.4058 12.9616 21.3712 12.8074 21.3138 12.6612C21.2317 12.4431 21.1143 12.24 20.9664 12.06C20.3936 11.363 19.9652 10.559 19.7064 9.6948C19.5351 9.08445 19.5508 8.43676 19.7514 7.8354L19.773 7.7796C19.9404 7.2018 20.205 6.8796 20.52 6.9408C20.5992 6.9516 20.8494 6.9858 21.2076 7.8714C21.4231 8.39562 21.5923 8.93769 21.7134 9.4914C21.78 9.7668 21.852 10.0602 21.9546 10.4184C22.0572 10.7766 22.1526 11.0304 22.2192 11.2284C22.3359 11.5304 22.4192 11.8443 22.4676 12.1644C22.544 12.6276 22.5688 13.0979 22.5414 13.5666C22.5382 13.5913 22.5259 13.6138 22.5069 13.6298C22.4879 13.6458 22.4636 13.6541 22.4388 13.653Z" fill="#5F2521"/>
<path d="M13.8852 15.8076C13.8548 16.0756 13.8934 16.3469 13.9974 16.5958C14.1013 16.8447 14.2672 17.0629 14.4792 17.2296L15.3 17.82" fill="#EEF2EB"/>
<path d="M15.3 17.9226C15.279 17.9217 15.2586 17.9155 15.2406 17.9046C14.9634 17.703 14.7006 17.505 14.4216 17.3034C14.1984 17.1287 14.0242 16.8993 13.9158 16.6374C13.8041 16.3716 13.7614 16.0818 13.7916 15.795C13.7943 15.7718 13.8056 15.7504 13.8232 15.7351C13.8409 15.7198 13.8636 15.7116 13.887 15.7122C13.9125 15.7149 13.9359 15.7276 13.9521 15.7475C13.9682 15.7674 13.9759 15.7929 13.9734 15.8184C13.9466 16.0716 13.987 16.3274 14.0904 16.56C14.1837 16.7927 14.3379 16.996 14.5368 17.1486L15.3558 17.7462C15.3657 17.7536 15.374 17.763 15.3802 17.7737C15.3864 17.7844 15.3904 17.7962 15.3919 17.8085C15.3934 17.8207 15.3924 17.8332 15.389 17.8451C15.3856 17.857 15.3798 17.868 15.372 17.8776C15.3647 17.8906 15.3543 17.9015 15.3418 17.9094C15.3292 17.9172 15.3148 17.9218 15.3 17.9226Z" fill="#5F2521"/>
<path d="M14.4576 16.362C14.0438 16.0785 13.7321 15.6696 13.5684 15.1956C13.465 14.8814 13.4312 14.5485 13.4694 14.22" fill="#EEF2EB"/>
<path d="M14.4558 16.4592C14.437 16.4571 14.419 16.4503 14.4036 16.4394C13.9745 16.1432 13.6515 15.7174 13.482 15.2244C13.3779 14.8968 13.3405 14.5515 13.3722 14.2092C13.3749 14.186 13.3862 14.1646 13.4038 14.1493C13.4215 14.134 13.4442 14.1258 13.4676 14.1264C13.493 14.1296 13.5163 14.1423 13.5327 14.162C13.5491 14.1818 13.5574 14.207 13.5558 14.2326C13.52 14.5465 13.5519 14.8645 13.6494 15.165C13.8067 15.6194 14.1042 16.012 14.499 16.2864C14.5095 16.2927 14.5187 16.301 14.5259 16.3109C14.5332 16.3207 14.5384 16.3319 14.5412 16.3439C14.5441 16.3558 14.5445 16.3681 14.5425 16.3802C14.5405 16.3923 14.5361 16.4038 14.5296 16.4142C14.5211 16.4264 14.5101 16.4367 14.4974 16.4444C14.4847 16.4522 14.4705 16.4572 14.4558 16.4592Z" fill="#5F2521"/>
<path d="M15.0732 16.425C14.894 16.0376 14.6814 15.6666 14.4378 15.3162C14.2757 15.0717 14.0952 14.84 13.8978 14.6232C13.6152 14.3208 13.5378 14.3028 13.3578 14.0832C13.158 13.8276 12.8484 13.3092 12.9762 13.1616C13.194 12.906 14.8716 13.5846 15.8688 14.9256C16.3247 15.5492 16.6219 16.2745 16.7346 17.0388" fill="#EEF2EB"/>
<path d="M16.7256 17.136C16.7027 17.1359 16.6806 17.1277 16.6631 17.1129C16.6457 17.0981 16.634 17.0776 16.6302 17.055C16.5248 16.3054 16.2354 15.5936 15.7878 14.9832C14.9382 13.8474 13.6278 13.2246 13.1598 13.2066H13.14C13.0662 13.2066 13.0374 13.221 13.0374 13.2282C12.978 13.2912 13.1616 13.698 13.4172 14.0274C13.4864 14.1148 13.5648 14.1945 13.6512 14.265C13.725 14.3352 13.8204 14.4144 13.9518 14.5584C14.1579 14.7765 14.3441 15.0126 14.508 15.264C14.7563 15.6169 14.9743 15.9903 15.1596 16.38C15.1648 16.3915 15.1676 16.404 15.1678 16.4166C15.1679 16.4293 15.1655 16.4418 15.1606 16.4535C15.1557 16.4652 15.1484 16.4757 15.1393 16.4844C15.1301 16.4931 15.1193 16.4999 15.1074 16.5042C15.0849 16.5127 15.0601 16.513 15.0374 16.5051C15.0147 16.4972 14.9955 16.4816 14.9832 16.461C14.8094 16.0774 14.6009 15.7105 14.3604 15.3648C14.1986 15.1241 14.018 14.8966 13.8204 14.6844C13.7296 14.5844 13.6335 14.4895 13.5324 14.4C13.4371 14.3228 13.3513 14.2346 13.2768 14.1372C13.2768 14.1372 12.6756 13.3614 12.8952 13.0968C12.9288 13.0683 12.9678 13.0468 13.0098 13.0336C13.0518 13.0203 13.0961 13.0155 13.14 13.0194H13.1616C13.68 13.0392 15.0498 13.68 15.9354 14.8734C16.4047 15.509 16.709 16.2512 16.821 17.0334C16.8222 17.0466 16.8207 17.0599 16.8165 17.0724C16.8122 17.085 16.8054 17.0965 16.7964 17.1062C16.7873 17.1159 16.7764 17.1235 16.7642 17.1287C16.752 17.1338 16.7388 17.1363 16.7256 17.136Z" fill="#5F2521"/>
<path d="M10.161 13.3992C9.5724 13.068 9.261 13.122 9.081 13.2192C8.4024 13.5792 8.6004 15.3018 9.027 16.4178C9.1404 16.7184 9.87481 18.6462 11.5344 19.0242C11.7342 19.0692 12.6864 19.2618 13.0572 18.7866C13.4028 18.342 13.0572 17.5266 12.8142 16.9506C12.6268 16.5045 12.3738 16.0889 12.0636 15.7176" fill="#EEF2EB"/>
<path d="M12.2004 19.1862C11.9707 19.184 11.742 19.1568 11.5182 19.1052C9.89819 18.7452 9.13859 16.974 8.94779 16.443C8.51579 15.3054 8.31059 13.518 9.04319 13.1256C9.33659 12.9798 9.72539 13.0464 10.2078 13.32C10.2189 13.3256 10.2288 13.3335 10.2367 13.3431C10.2447 13.3528 10.2505 13.364 10.2539 13.376C10.2573 13.388 10.2582 13.4006 10.2564 13.413C10.2547 13.4253 10.2504 13.4372 10.2438 13.4478C10.2314 13.4683 10.2116 13.4833 10.1885 13.4897C10.1654 13.496 10.1407 13.4933 10.1196 13.482C9.68759 13.239 9.35819 13.1706 9.13139 13.302C8.52299 13.6242 8.72099 15.3162 9.13139 16.3854C9.26279 16.7454 10.0026 18.5742 11.5704 18.9306C11.7504 18.9738 12.6684 19.1574 12.9978 18.7254C13.3128 18.3258 12.969 17.5194 12.7422 16.9848C12.555 16.5492 12.3085 16.1415 12.0096 15.7734C11.9941 15.7541 11.9869 15.7294 11.9896 15.7047C11.9923 15.6801 12.0047 15.6575 12.024 15.642C12.0528 15.606 12.1194 15.6168 12.1554 15.6564C12.4688 16.0373 12.7253 16.4618 12.9168 16.9164C13.1742 17.523 13.5324 18.3564 13.1454 18.846C12.9258 19.1124 12.5442 19.1862 12.2004 19.1862Z" fill="#5F2521"/>
<path d="M15.498 17.1C15.5427 17.1588 15.6039 17.2028 15.6739 17.2265C15.7438 17.2503 15.8192 17.2526 15.8904 17.2332C15.9638 17.1954 16.0237 17.1359 16.0621 17.0628C16.1004 16.9896 16.1153 16.9065 16.1046 16.8246C16.0841 16.6713 16.0074 16.5312 15.8893 16.4314C15.7712 16.3315 15.6201 16.2792 15.4656 16.2846C15.3326 16.3049 15.2086 16.3643 15.1095 16.4554C15.0105 16.5465 14.9408 16.665 14.9094 16.7958C14.8014 17.2098 15.12 17.6148 15.3 17.82C16.0184 18.6871 16.7802 19.5174 17.5824 20.3076C18.1494 20.8746 19.179 21.9132 20.1258 22.4982C20.16 22.5198 20.1402 22.4982 20.3832 22.6422C21.2472 23.1264 21.4812 23.2722 21.8016 23.2488C21.8644 23.2507 21.9269 23.2395 21.9852 23.2159C22.0434 23.1924 22.0961 23.157 22.14 23.112C22.1778 23.0609 22.2048 23.0026 22.2194 22.9407C22.2339 22.8788 22.2357 22.8146 22.2246 22.752C22.1886 22.3758 21.843 22.05 21.231 21.5352C20.6694 21.0636 20.5002 20.952 20.3454 20.799C20.3022 20.754 20.2716 20.7216 20.2302 20.673C19.9513 20.3951 19.763 20.0393 19.6902 19.6524C19.6694 19.4772 19.681 19.2996 19.7244 19.1286" fill="#EEF2EB"/>
<path d="M21.7206 23.3532C21.4416 23.3532 21.1932 23.2146 20.5056 22.8294L20.3364 22.7304C20.1024 22.6026 20.0952 22.599 20.0736 22.5846C19.1736 22.0248 18.1836 21.051 17.5968 20.4714L17.4726 20.3436C16.6815 19.5638 15.9311 18.7437 15.2244 17.8866C15.0642 17.6958 14.6844 17.2458 14.8212 16.7778C14.8565 16.6284 14.9364 16.4932 15.0501 16.39C15.1639 16.2869 15.3062 16.2206 15.4584 16.2C15.6432 16.1971 15.8228 16.261 15.9642 16.38C16.0314 16.4344 16.087 16.5018 16.1275 16.5782C16.1681 16.6546 16.1927 16.7384 16.2 16.8246C16.2116 16.9267 16.1912 17.03 16.1415 17.12C16.0919 17.21 16.0154 17.2823 15.9228 17.3268C15.8329 17.3517 15.7378 17.3496 15.6491 17.3208C15.5605 17.292 15.4822 17.2377 15.4242 17.1648C15.4087 17.1455 15.4015 17.1208 15.4042 17.0961C15.4069 17.0715 15.4193 17.049 15.4386 17.0334C15.4674 16.9902 15.5268 17.001 15.57 17.0334C15.6582 17.1288 15.768 17.1864 15.8634 17.1432C15.9588 17.1 16.0182 16.9272 16.0092 16.8282C15.9958 16.7072 15.935 16.5965 15.84 16.5204C15.749 16.4335 15.6291 16.3835 15.5034 16.38C15.4956 16.379 15.4877 16.379 15.48 16.38C15.3665 16.4001 15.2613 16.4527 15.177 16.5312C15.0926 16.6098 15.0329 16.711 15.0048 16.8228C14.9094 17.1918 15.2388 17.5914 15.3792 17.7642C16.2864 18.9 17.28 19.8864 17.604 20.2122L17.73 20.3364C18.3078 20.9106 19.2816 21.8772 20.1762 22.4226C20.2526 22.4808 20.3361 22.5292 20.4246 22.5666L20.6046 22.6656C21.3138 23.0634 21.5334 23.1894 21.7908 23.1588C21.8415 23.1611 21.8922 23.1532 21.9398 23.1356C21.9874 23.118 22.031 23.091 22.068 23.0562C22.0965 23.0153 22.1165 22.969 22.1267 22.9201C22.1369 22.8712 22.1371 22.8208 22.1274 22.7718C22.0986 22.4118 21.7314 22.086 21.1752 21.618L20.6118 21.1536C20.4962 21.0664 20.3861 20.972 20.2824 20.871C20.2358 20.8318 20.1936 20.7878 20.1564 20.7396C19.8661 20.4484 19.672 20.0753 19.6002 19.6704C19.5788 19.4833 19.5941 19.2937 19.6452 19.1124C19.6452 19.062 19.6956 19.044 19.755 19.044C19.7667 19.0471 19.7777 19.0526 19.7873 19.06C19.797 19.0674 19.805 19.0766 19.8111 19.0872C19.8171 19.0977 19.821 19.1094 19.8225 19.1214C19.824 19.1335 19.823 19.1457 19.8198 19.1574C19.7819 19.3177 19.7721 19.4834 19.791 19.647C19.8547 20.0172 20.0343 20.3575 20.304 20.619C20.3333 20.6609 20.3678 20.699 20.4066 20.7324C20.4948 20.8188 20.5866 20.8854 20.7288 21.006C20.871 21.1266 21.0366 21.2508 21.2922 21.4722C21.8862 21.969 22.2732 22.329 22.3182 22.7538C22.3316 22.8279 22.3294 22.9039 22.3118 22.9771C22.2941 23.0502 22.2613 23.1189 22.2156 23.1786C22.1057 23.286 21.9588 23.3472 21.8052 23.3496L21.7206 23.3532Z" fill="#5F2521"/>
<path d="M18.6426 14.8248L18.8226 14.004C18.6541 13.5393 18.4169 13.1024 18.1188 12.708C17.6688 12.1176 17.4384 12.1032 17.0154 11.628C16.3825 10.873 16.0111 9.93332 15.957 8.94962C15.9412 8.4448 16.0019 7.94049 16.137 7.45382L16.1766 7.32062L16.3314 7.36562C16.6779 7.48385 17.0049 7.65312 17.3016 7.86782C17.9388 8.34662 18.3816 9.41042 18.3816 9.41042C18.8532 10.557 19.3824 11.8746 19.9404 13.3704C20.1466 13.284 20.3606 13.2171 20.5794 13.1706C20.8306 13.1157 21.0872 13.0897 21.3444 13.0932C22.0392 13.122 22.6044 13.6638 22.8042 13.869C24.4728 15.489 23.9076 18.36 23.85 18.5832C23.7595 18.9542 23.6119 19.3088 23.4126 19.6344C23.2415 19.9221 22.9856 20.1497 22.68 20.286C22.095 20.5326 21.4668 20.2284 21.0222 20.0106C20.6406 19.8306 19.4832 19.2546 18.9486 18.0738C18.7686 17.6886 18.6228 17.1432 18.0792 16.605C17.9716 16.4987 17.8568 16.4 17.7354 16.3098L18.1224 16.2774L18.6624 16.542" fill="#EEF2EB"/>
<path d="M22.2192 20.4714C21.7422 20.4714 21.2958 20.2446 20.988 20.0952C19.9548 19.5966 19.2384 18.9306 18.864 18.1152L18.7758 17.9028C18.62 17.4416 18.3622 17.0213 18.0216 16.6734C17.9175 16.57 17.8049 16.4754 17.685 16.3908L17.487 16.245L18.1548 16.182L18.18 16.2C18.36 16.2918 18.54 16.38 18.72 16.4682C18.7417 16.4794 18.7584 16.4986 18.7664 16.5217C18.7744 16.5448 18.7733 16.5701 18.7632 16.5924C18.7491 16.6131 18.7286 16.6286 18.7048 16.6364C18.6811 16.6442 18.6554 16.6439 18.6318 16.6356C18.4518 16.551 18.288 16.4682 18.1188 16.38L17.9946 16.3944C18.0468 16.4376 18.1044 16.4898 18.1638 16.5474C18.5216 16.9141 18.794 17.3555 18.9612 17.8398C18.99 17.91 19.0206 17.9802 19.0494 18.045C19.4094 18.819 20.0898 19.4562 21.0852 19.935C21.4884 20.1366 22.0878 20.4444 22.6602 20.2068C22.9386 20.0726 23.1705 19.8582 23.3262 19.5912C23.5199 19.2745 23.6633 18.9296 23.751 18.5688C23.751 18.54 24.4314 15.5988 22.7322 13.941C22.5288 13.743 21.9852 13.221 21.3336 13.1976C21.3072 13.1958 21.2808 13.1958 21.2544 13.1976C21.0322 13.2014 20.8109 13.2274 20.5938 13.275C20.3808 13.3179 20.1727 13.3824 19.9728 13.4676L19.8846 13.5054L19.8468 13.4136C19.2906 11.9232 18.7488 10.5894 18.288 9.45362C18.288 9.44282 17.8488 8.40602 17.2404 7.95242C16.9548 7.74071 16.6385 7.57379 16.3026 7.45742L16.2378 7.43942C16.231 7.45327 16.2256 7.46773 16.2216 7.48262C16.0972 7.96185 16.0432 8.45664 16.0614 8.95142C16.1092 9.91411 16.4722 10.8344 17.0946 11.5704C17.2332 11.7307 17.3876 11.8766 17.5554 12.006C17.798 12.1938 18.0147 12.4129 18.1998 12.6576C18.5029 13.0606 18.7454 13.5057 18.9198 13.9788V14.031L18.7398 14.85C18.7254 14.9022 18.666 14.949 18.6228 14.9238C18.5987 14.9186 18.5775 14.9043 18.5638 14.8838C18.55 14.8633 18.5447 14.8383 18.549 14.814L18.729 14.0202C18.5609 13.5744 18.3319 13.154 18.0486 12.771C17.8717 12.5383 17.6647 12.33 17.433 12.1518C17.2547 12.0157 17.0902 11.8626 16.9416 11.6946C16.011 10.6434 15.8868 9.33662 15.8616 8.95862C15.8402 8.44349 15.901 7.92825 16.0416 7.43222C16.0483 7.38069 16.0654 7.33108 16.092 7.28642L16.1226 7.21262L16.3494 7.27742C16.7088 7.3987 17.0471 7.57543 17.352 7.80122C18.0036 8.28542 18.432 9.33662 18.4572 9.37982C18.9126 10.494 19.44 11.7936 19.9818 13.2498C20.1645 13.179 20.353 13.1242 20.5452 13.086C20.8055 13.0346 21.07 13.0074 21.3354 13.005C22.0554 13.0338 22.6404 13.5918 22.8528 13.8006C24.6312 15.5358 23.9328 18.5814 23.922 18.6156C23.8352 18.9971 23.6869 19.3619 23.4828 19.6956C23.3057 19.9956 23.0422 20.2353 22.7268 20.3832C22.5652 20.4465 22.3926 20.4765 22.2192 20.4714Z" fill="#5F2521"/>
<path d="M18.513 15.9336C18.5751 15.9188 18.6292 15.8808 18.6642 15.8274C18.6927 15.7588 18.696 15.6824 18.6736 15.6116C18.6512 15.5408 18.6045 15.4802 18.5418 15.4404C18.4828 15.4013 18.4136 15.3805 18.3429 15.3805C18.2721 15.3805 18.203 15.4013 18.144 15.4404C18.0974 15.4781 18.0592 15.5251 18.032 15.5784C18.0047 15.6318 17.9889 15.6902 17.9856 15.75C17.9804 15.8536 17.9977 15.9571 18.0362 16.0534C18.0747 16.1497 18.1336 16.2366 18.2088 16.308" fill="#EEF2EB"/>
<path d="M18.2052 16.4106C18.1801 16.41 18.1562 16.3997 18.1386 16.3818C18.0533 16.3008 17.9869 16.2021 17.9439 16.0926C17.901 15.9832 17.8827 15.8656 17.8902 15.7482C17.8945 15.674 17.9151 15.6017 17.9506 15.5363C17.9861 15.471 18.0355 15.4143 18.0954 15.3702C18.1682 15.3184 18.2553 15.2906 18.3447 15.2906C18.434 15.2906 18.5212 15.3184 18.594 15.3702C18.6767 15.4233 18.7376 15.5042 18.7657 15.5983C18.7937 15.6925 18.7871 15.7936 18.747 15.8832C18.6964 15.9519 18.623 16.0004 18.54 16.02H18.5112C18.4905 16.0208 18.4703 16.0142 18.4541 16.0013C18.4379 15.9884 18.4269 15.9701 18.423 15.9498C18.4165 15.9264 18.419 15.9014 18.43 15.8798C18.441 15.8581 18.4597 15.8414 18.4824 15.8328C18.5033 15.8298 18.5233 15.8223 18.541 15.8108C18.5587 15.7993 18.5737 15.7841 18.585 15.7662C18.6282 15.7014 18.585 15.5682 18.4896 15.507C18.4461 15.4781 18.3951 15.4626 18.3429 15.4626C18.2907 15.4626 18.2396 15.4781 18.1962 15.507C18.1592 15.5361 18.1294 15.5733 18.1091 15.6157C18.0888 15.6582 18.0786 15.7048 18.0792 15.7518C18.0752 15.8409 18.0901 15.9297 18.123 16.0126C18.1559 16.0954 18.206 16.1704 18.27 16.2324C18.2824 16.2458 18.2907 16.2625 18.294 16.2805C18.2972 16.2985 18.2951 16.317 18.2881 16.3339C18.2811 16.3508 18.2694 16.3653 18.2544 16.3757C18.2394 16.3861 18.2217 16.392 18.2034 16.3926L18.2052 16.4106Z" fill="#5F2521"/>
<path d="M23.1426 19.3698C23.1193 19.4541 23.0781 19.5325 23.0219 19.5996C22.9657 19.6666 22.8958 19.7209 22.8168 19.7586C22.7221 19.7597 22.6285 19.7374 22.5444 19.6938C22.4602 19.6501 22.3881 19.5865 22.3344 19.5084" fill="#EEF2EB"/>
<path d="M22.7898 19.8486C22.687 19.8437 22.5865 19.8163 22.4954 19.7684C22.4043 19.7205 22.3248 19.6533 22.2624 19.5714C22.247 19.551 22.2399 19.5256 22.2426 19.5002C22.2453 19.4748 22.2575 19.4514 22.2768 19.4346C22.2959 19.4189 22.3205 19.4115 22.3451 19.4138C22.3697 19.4162 22.3924 19.4282 22.4082 19.4472C22.4528 19.5086 22.5098 19.5598 22.5756 19.5977C22.6413 19.6355 22.7143 19.6591 22.7898 19.6668C22.8042 19.6668 22.8042 19.6668 22.8042 19.6668C22.8642 19.6351 22.9168 19.5909 22.9584 19.5372C23 19.4835 23.0297 19.4215 23.0454 19.3554C23.0529 19.3308 23.0691 19.3098 23.0909 19.2962C23.1128 19.2826 23.1388 19.2774 23.1642 19.2816C23.1879 19.2872 23.2087 19.3017 23.2221 19.3222C23.2355 19.3426 23.2405 19.3674 23.2362 19.3914C23.2087 19.4886 23.1614 19.5791 23.0973 19.6572C23.0332 19.7352 22.9536 19.7992 22.8636 19.845C22.8392 19.8492 22.8144 19.8504 22.7898 19.8486Z" fill="#5F2521"/>
<path d="M22.7411 20.2644L22.8168 19.7586L22.7411 20.2644Z" fill="#EEF2EB"/>
<path d="M22.7394 20.358C22.7258 20.3573 22.7125 20.3539 22.7003 20.348C22.6881 20.3421 22.6772 20.3337 22.6683 20.3234C22.6594 20.3132 22.6526 20.3012 22.6484 20.2883C22.6443 20.2754 22.6427 20.2617 22.644 20.2482L22.7232 19.7424C22.7322 19.6884 22.797 19.6326 22.833 19.6668C22.8453 19.6683 22.8572 19.6723 22.868 19.6785C22.8788 19.6847 22.8882 19.693 22.8957 19.7029C22.9033 19.7128 22.9088 19.7241 22.9119 19.7361C22.915 19.7482 22.9157 19.7607 22.914 19.773L22.833 20.277C22.8295 20.2994 22.8182 20.3199 22.8011 20.3348C22.7839 20.3496 22.762 20.3578 22.7394 20.358Z" fill="#5F2521"/>
<path d="M10.458 15.615C10.3032 15.1578 9.99901 14.8788 9.72181 14.895C9.58997 14.9134 9.4705 14.9825 9.38882 15.0876C8.99642 15.5754 9.58321 16.5762 9.61561 16.632C9.78923 16.9149 10.0182 17.1598 10.2888 17.352C10.188 17.208 9.51121 16.227 9.69661 15.6978C9.72357 15.5974 9.78799 15.5111 9.87661 15.4566C10.1124 15.3468 10.44 15.597 10.458 15.615Z" fill="#CE4E25"/>
<path d="M17.2189 9.46784C17.4834 9.35832 17.5677 8.95532 17.4073 8.56771C17.2468 8.1801 16.9023 7.95466 16.6377 8.06418C16.3732 8.1737 16.2888 8.5767 16.4493 8.96431C16.6098 9.35192 16.9543 9.57736 17.2189 9.46784Z" fill="#CE4E25"/>
<path d="M20.7573 8.94233C20.9455 8.90506 21.0415 8.58946 20.9718 8.23742C20.9021 7.88539 20.693 7.63021 20.5048 7.66748C20.3166 7.70474 20.2206 8.02034 20.2903 8.37238C20.36 8.72442 20.5691 8.97959 20.7573 8.94233Z" fill="#CE4E25"/>
<path d="M20.7756 17.1C21.2266 17.7135 21.5666 18.4013 21.78 19.1322C21.0135 18.805 20.3751 18.2361 19.962 17.5122C19.6659 16.9839 19.5028 16.3914 19.4868 15.786C19.9763 16.1609 20.4102 16.6033 20.7756 17.1Z" fill="#CE4E25"/>
<path d="M20.7486 14.976C20.7486 14.832 20.7216 14.3226 21.06 14.076C21.1577 14.0159 21.2666 13.976 21.38 13.9587C21.4935 13.9414 21.6093 13.947 21.7206 13.9752C22.491 14.1552 23.085 15.2784 22.9104 16.0326C22.8417 16.2048 22.8028 16.3874 22.7952 16.5726C22.7952 16.7418 22.851 17.2314 22.8654 17.406C22.8729 17.4373 22.8729 17.4699 22.8654 17.5012C22.8579 17.5325 22.8431 17.5616 22.8222 17.586C22.8081 17.597 22.7913 17.6039 22.7736 17.6058C22.653 17.6202 22.5936 17.091 22.2714 16.785C22.1058 16.6248 22.0032 16.6518 21.7602 16.5294C21.4735 16.3777 21.2302 16.1555 21.0532 15.8837C20.8763 15.6119 20.7714 15.2995 20.7486 14.976ZM22.446 16.2612C22.7412 16.0956 22.698 15.1686 22.2048 14.6574C21.9582 14.4018 21.5136 14.1606 21.2922 14.3082C21.0222 14.4882 21.1338 15.2082 21.4632 15.6798C21.7152 16.0362 22.2048 16.3962 22.446 16.2612Z" fill="#CE4E25"/>
<path d="M19.818 17.433C19.8755 17.6001 19.9678 17.7531 20.0888 17.8818C20.2098 18.0106 20.3568 18.1122 20.52 18.18C20.7046 18.2525 20.9043 18.2785 21.1014 18.2556C21.1453 18.0562 21.1502 17.8502 21.1158 17.649C21.0961 17.3754 20.9755 17.1188 20.7774 16.929C20.394 16.6194 19.8486 16.8102 19.8036 16.8264C19.7556 17.0264 19.7606 17.2355 19.818 17.433Z" fill="#EEF2EB"/>
<path d="M20.9664 18.36C20.7987 18.3613 20.6322 18.332 20.475 18.2736C20.3 18.1986 20.1429 18.0873 20.0141 17.9471C19.8853 17.8068 19.7878 17.6408 19.728 17.46C19.6692 17.251 19.6643 17.0306 19.7136 16.8192V16.7706L19.7586 16.7526C19.773 16.7526 20.3814 16.5078 20.8206 16.8696C21.0338 17.0648 21.1666 17.3324 21.1932 17.6202C21.2355 17.8408 21.2355 18.0674 21.1932 18.288L21.1788 18.3528H21.105C21.06 18.36 21.0096 18.36 20.9664 18.36ZM19.9044 17.4042C19.957 17.5586 20.0416 17.7 20.1526 17.8195C20.2637 17.9389 20.3987 18.0335 20.5488 18.0972C20.697 18.1579 20.8569 18.1844 21.0168 18.1746C21.0477 18.0074 21.0477 17.836 21.0168 17.6688C20.999 17.4202 20.89 17.1869 20.7108 17.0136C20.4318 16.7868 20.0214 16.8732 19.8828 16.911C19.8507 17.0748 19.8581 17.2439 19.9044 17.4042Z" fill="#5F2521"/>
<path d="M22.2228 22.8852C22.1675 22.8207 22.1073 22.7605 22.0428 22.7052C21.9775 22.6507 21.9076 22.6019 21.834 22.5594" fill="#EEF2EB"/>
<path fill-rule="evenodd" clip-rule="evenodd" d="M21.7474 22.5094C21.7751 22.4615 21.8362 22.4452 21.8841 22.4728C21.9626 22.5182 22.0372 22.5703 22.1069 22.6284L22.1079 22.6293L22.1079 22.6293C22.1763 22.6879 22.2401 22.7517 22.2987 22.8201C22.3347 22.8621 22.3298 22.9252 22.2879 22.9611C22.246 22.9971 22.1828 22.9922 22.1469 22.9503C22.0951 22.8898 22.0387 22.8334 21.9782 22.7816C21.9175 22.7309 21.8525 22.6856 21.784 22.646C21.7362 22.6184 21.7198 22.5572 21.7474 22.5094Z" fill="#5F2521"/>
<path d="M24.444 20.52C24.4109 20.4275 24.373 20.3368 24.3306 20.2482C24.2891 20.1605 24.2428 20.0752 24.192 19.9926" fill="#EEF2EB"/>
<path fill-rule="evenodd" clip-rule="evenodd" d="M24.1396 19.9075C24.1866 19.8785 24.2482 19.8932 24.2772 19.9402C24.3299 20.0259 24.3779 20.1144 24.4209 20.2053C24.4647 20.2969 24.5038 20.3907 24.5381 20.4863C24.5568 20.5383 24.5297 20.5955 24.4777 20.6142C24.4258 20.6328 24.3685 20.6058 24.3499 20.5538C24.3179 20.4645 24.2813 20.3769 24.2404 20.2914L24.2402 20.291L24.2402 20.291C24.2003 20.2066 24.1557 20.1245 24.1068 20.045C24.0779 19.998 24.0926 19.9364 24.1396 19.9075Z" fill="#5F2521"/>
<path d="M21.9708 23.22C21.9228 23.1464 21.8693 23.0766 21.8106 23.0112C21.756 22.9461 21.6957 22.8859 21.6306 22.8312" fill="#EEF2EB"/>
<path fill-rule="evenodd" clip-rule="evenodd" d="M21.554 22.7669C21.5895 22.7246 21.6526 22.7191 21.6949 22.7546C21.764 22.8127 21.828 22.8766 21.8861 22.9456C21.9478 23.0145 22.0041 23.088 22.0546 23.1654C22.0847 23.2117 22.0717 23.2736 22.0254 23.3038C21.9791 23.3339 21.9172 23.3209 21.887 23.2746C21.8418 23.2053 21.7914 23.1396 21.7361 23.078L21.734 23.0755L21.734 23.0755C21.6831 23.0148 21.6269 22.9587 21.5663 22.9078C21.524 22.8723 21.5185 22.8092 21.554 22.7669Z" fill="#5F2521"/>
<path d="M10.0404 20.3652C10.0027 20.1565 9.94236 19.9525 9.86041 19.7568L10.0404 20.3652Z" fill="#EEF2EB"/>
<path fill-rule="evenodd" clip-rule="evenodd" d="M9.82177 19.6646C9.87271 19.6433 9.9313 19.6673 9.95264 19.7182C10.0374 19.9205 10.0998 20.1315 10.1388 20.3474C10.1486 20.4018 10.1125 20.4538 10.0582 20.4636C10.0038 20.4734 9.95181 20.4373 9.94199 20.383C9.90559 20.1814 9.84731 19.9844 9.76817 19.7955C9.74683 19.7445 9.77083 19.6859 9.82177 19.6646Z" fill="#5F2521"/>
<path d="M10.4706 20.2158C10.4222 20.0101 10.3516 19.8104 10.26 19.62L10.4706 20.2158Z" fill="#EEF2EB"/>
<path fill-rule="evenodd" clip-rule="evenodd" d="M10.2166 19.5299C10.2664 19.506 10.3262 19.5269 10.3501 19.5767C10.4449 19.7736 10.5179 19.9802 10.5679 20.1929C10.5806 20.2467 10.5473 20.3005 10.4935 20.3132C10.4397 20.3258 10.3859 20.2925 10.3733 20.2387C10.3265 20.0401 10.2583 19.8472 10.1699 19.6634C10.1459 19.6136 10.1669 19.5538 10.2166 19.5299Z" fill="#5F2521"/>
<path d="M19.9674 17.4024C20.0088 17.8632 20.4732 18.2898 20.7288 18.2034C20.934 18.135 20.9682 17.7552 20.9754 17.6634C21.0042 17.3538 20.9034 16.9002 20.583 16.7742C20.5243 16.7484 20.4608 16.735 20.3967 16.735C20.3325 16.735 20.2691 16.7484 20.2104 16.7742C19.9296 16.92 19.9656 17.3808 19.9674 17.4024Z" fill="#5F2521"/>
<path d="M52.7459 19.3713C52.7459 19.3713 52.5853 19.1998 52.5853 19.0284C52.5853 18.857 52.5853 18.6855 52.4247 18.5141L52.2641 17.657L52.1035 17.4855C52.1035 17.3141 52.1035 17.3141 52.1035 16.9713C52.1035 16.7998 51.9428 16.457 51.9428 16.2855C51.9428 16.1141 51.7822 15.9427 51.7822 15.5998C51.7822 15.4284 51.6216 15.257 51.6216 15.257C51.6216 15.257 51.6216 15.0855 51.461 14.7427C51.3004 14.3998 51.3004 14.2284 51.3004 13.8855C51.3004 13.5427 51.1398 13.1998 51.1398 13.0284C51.1398 12.6855 50.9791 12.5141 50.9791 12.5141L50.8185 13.7141V13.8855C50.8185 13.8855 50.8185 13.8855 50.8185 14.057V14.7427L50.6579 15.4284L50.4973 15.5998C50.4973 15.5998 50.4973 15.7713 50.4973 15.9427C50.4973 16.1141 50.4973 16.1141 50.4973 16.2855V16.6284C50.4973 16.7998 50.4973 16.7998 50.4973 16.9713C50.4973 17.1427 50.4973 17.1427 50.4973 17.3141L50.3367 17.657V18.3427C50.3367 18.5141 50.3367 18.5141 50.3367 18.6855V18.857L50.1761 19.7141H50.0154L49.8548 19.8855V20.057V20.2284L50.1761 20.057V20.2284V20.7427L50.3367 20.9141L50.1761 21.4284V21.7713H49.5336H49.2124L49.0517 22.1141L48.7305 22.457L48.8911 22.6284H48.4093L48.2486 22.1141L48.088 21.9427L47.7668 22.1141V22.2855V22.457H47.6062L46.9637 22.1141L46.3212 21.9427C46.3212 21.9427 46.1606 21.7713 46.1606 21.4284C46.1606 21.0855 46.1606 20.9141 46 20.9141V20.5713V20.3998V20.2284V19.8855V19.7141L46.1606 19.3713V19.1998L46.3212 18.857V18.5141C46.3212 18.5141 46.3212 18.3427 46.3212 18.1713C46.3212 17.9998 46.4819 17.8284 46.4819 17.657L46.6425 17.1427C46.6425 16.9713 46.6425 16.9713 46.6425 16.7998C46.6425 16.6284 46.8031 16.457 46.8031 16.457V15.9427C46.8031 15.9427 46.8031 15.7713 46.9637 15.5998L47.1243 15.4284L46.9637 15.257V15.0855C46.9637 15.0855 46.9637 15.0855 47.1243 14.9141C47.1243 14.7427 47.2849 14.7427 47.2849 14.5713C47.2849 14.3998 47.4456 14.3998 47.4456 14.2284C47.4456 14.057 47.4456 14.057 47.4456 14.057V13.8855H47.2849C47.4456 13.1998 47.4456 12.6855 47.6062 12.1713C47.7668 11.657 47.7668 10.9713 47.7668 10.2855L48.088 9.59983L48.2486 9.25698C48.2486 9.08555 48.2486 8.91412 48.2486 8.74269C48.2486 8.57126 48.4093 8.2284 48.5699 8.05698C48.7305 7.88555 48.7305 7.54269 48.8911 7.37126C49.0517 7.19983 49.0517 7.0284 49.2124 6.85698L50.0154 6.68555C50.1761 6.68555 50.4973 7.0284 50.9791 7.71412C51.3004 8.2284 51.6216 9.08555 51.9428 10.1141H52.1035C52.1035 10.6284 52.2641 11.1427 52.4247 11.657L52.5853 11.9998L52.7459 12.6855L52.9066 13.0284C52.9066 13.1998 52.9066 13.3713 53.0672 13.3713C53.2278 13.7141 53.2278 14.2284 53.3884 14.5713C53.3884 14.9141 53.549 15.257 53.7096 15.7713V15.5998C53.8703 15.4284 54.0309 15.257 54.1915 15.0855C54.3521 14.9141 54.5127 14.7427 54.5127 14.3998L54.834 13.7141L54.9946 13.5427L55.3158 12.857C55.6371 12.3427 55.7977 11.8284 55.9583 11.4855C56.1189 11.1427 56.2795 10.7998 56.4401 10.6284C56.6008 10.2855 56.7614 10.1141 56.922 9.77126C57.0826 9.4284 57.2432 9.08555 57.4038 8.57126C57.4038 8.2284 57.5645 8.05697 57.7251 7.88555C57.8857 7.71412 58.2069 7.54269 58.5282 7.54269C58.5282 7.54269 58.5282 7.54269 58.6888 7.54269C58.8494 7.54269 58.8494 7.54269 58.8494 7.37126C58.8494 7.19983 59.01 7.19983 59.01 7.19983H59.1706V7.0284H59.4919H60.1343C60.295 7.19983 60.6162 7.37126 60.7768 7.37126C61.098 7.54269 61.2587 7.71412 61.2587 7.88555L61.098 8.05698L61.2587 8.39983V8.74269V8.91412C61.2587 8.91412 61.2587 9.08555 61.2587 9.25698L61.4193 9.59983C61.4193 9.59983 61.4193 9.94269 61.5799 10.2855C61.7405 10.6284 61.7405 10.7998 61.7405 10.9713L61.5799 12.1713V13.5427V14.2284L61.4193 14.5713C61.4193 14.5713 61.4193 14.7427 61.4193 14.9141V15.0855V15.5998H61.9011V15.9427L61.7405 16.1141V16.2855H61.9011V16.6284V16.7998C61.9011 16.7998 62.0618 16.7998 62.0618 16.9713L61.9011 17.657C61.9011 17.657 61.9011 17.8284 61.9011 17.9998L61.7405 18.1713L62.0618 17.9998V18.1713H61.9011V18.3427H62.0618H62.2224V18.5141L62.0618 19.1998C62.0618 19.1998 61.9011 19.3713 61.9011 19.5427C61.9011 19.7141 61.9011 19.8855 61.9011 19.8855L62.383 20.7427C62.383 20.9141 62.2224 20.9141 62.2224 21.0855L62.0618 21.257H62.383V21.4284L62.2224 21.7713C62.2224 21.7713 62.2224 21.7713 62.383 21.7713H62.5436V21.9427L62.2224 22.1141L62.383 24.3427L62.2224 24.5141V24.6855H62.0618C61.9011 24.6855 61.9011 24.857 61.7405 24.857C61.5799 24.857 61.5799 25.0284 61.4193 25.0284C61.2587 25.0284 61.2587 25.1998 61.2587 25.1998H61.098H59.8131C59.8131 25.1998 59.6525 25.3713 59.6525 25.1998C59.6525 25.0284 59.6525 25.1998 59.6525 25.3713V25.1998L59.1706 25.0284L58.6888 24.3427L58.3675 22.7998L58.6888 22.1141C58.6888 21.7713 58.5282 21.4284 58.5282 20.9141C58.5282 20.3998 58.5282 20.057 58.5282 19.5427V17.9998V17.4855V16.9713H58.3675C58.3675 16.6284 58.3675 16.2855 58.3675 15.9427C58.3675 15.5998 58.3675 15.257 58.3675 14.9141C58.3675 14.5713 58.3675 14.3998 58.3675 14.2284C58.3675 14.057 58.3676 13.7141 58.2069 13.5427L57.2432 15.4284C57.0826 15.7713 56.922 16.1141 56.7614 16.2855C56.6008 16.457 56.4401 16.6284 56.2795 17.1427C56.1189 17.3141 56.1189 17.657 55.9583 17.8284C55.7977 17.9998 55.6371 18.3427 55.4764 18.5141L54.9946 19.3713C54.834 19.3713 54.6733 19.5427 54.6733 19.7141C54.5127 19.7141 54.3521 19.8855 54.3521 19.8855L54.1915 20.057C54.1915 20.057 54.0309 20.057 54.1915 20.057C54.0309 20.057 53.8703 20.057 53.549 19.8855C53.0672 19.7141 52.9066 19.5427 52.7459 19.3713ZM48.4093 13.3713C48.4093 13.5427 48.2486 13.7141 48.2486 13.8855C48.2486 14.057 48.2486 14.2284 48.2486 14.3998H48.5699V13.1998L48.4093 13.3713ZM49.8548 17.9998C49.6942 18.1713 49.6942 18.3427 49.6942 18.3427C49.6942 18.5141 49.6942 18.6855 49.6942 18.6855C49.8548 18.5141 50.0154 18.3427 50.0154 18.1713V17.9998H49.8548ZM61.9011 14.7427C62.0618 14.7427 62.0618 14.7427 62.0618 14.9141C62.0618 15.0855 62.0618 15.0855 61.9011 15.0855C61.9011 15.0855 61.9011 14.9141 61.9011 14.7427ZM49.6942 17.657H49.8548H49.6942ZM62.0618 15.257C62.0618 15.4284 62.0618 15.4284 62.0618 15.257C61.9011 15.4284 61.9011 15.4284 62.0618 15.257C61.9011 15.257 61.9011 15.257 62.0618 15.257C61.9011 15.257 62.0618 15.257 62.0618 15.257Z" fill="#EEFFFC"/>
<path d="M64.31 19.3716C64.31 19.3716 64.4706 19.3716 64.31 19.3716C64.31 19.2002 64.4706 19.2002 64.4706 19.0287L64.6313 18.8573C64.6313 18.5144 64.7919 18.0002 64.9525 17.4859C65.1131 16.9716 65.4344 16.6287 65.7556 16.4573L66.0768 16.2859C66.0768 16.2859 66.0768 16.2859 66.0768 16.1144C66.0768 15.943 66.0768 15.943 66.0768 15.943L66.2374 15.7716C66.3981 15.4287 66.5587 15.2573 66.8799 14.9144C67.0405 14.5716 67.3618 14.4002 67.5224 14.0573C67.683 13.8859 68.0042 13.7144 68.1648 13.543C68.3255 13.3716 68.4861 13.3716 68.6467 13.3716H68.8073C68.8073 13.3716 68.9679 13.3716 69.1286 13.543L69.4498 14.0573C69.6104 14.0573 69.6104 14.2287 69.771 14.4002L69.9316 14.743V15.4287L70.0923 15.6002L70.2529 15.7716C70.2529 15.7716 70.2529 15.7716 70.4135 15.7716L70.8953 16.1144C70.8953 16.2859 71.056 16.2859 71.056 16.4573C71.056 16.6287 71.2166 16.8002 71.3772 16.9716L71.859 17.6573C71.859 17.6573 72.0197 17.8287 72.0197 18.0002C72.0197 18.1716 72.1803 18.343 72.1803 18.6859C72.1803 18.8573 72.3409 19.2002 72.3409 19.3716C72.3409 19.543 72.3409 19.7144 72.3409 19.7144V20.0573L72.0197 20.9144V21.2573L71.6984 21.6002L70.7347 21.7716C70.5741 21.7716 70.4135 21.943 70.2529 21.943C70.0923 21.943 69.9316 21.943 69.771 22.1144L69.4498 22.2859C69.2892 22.4573 69.1286 22.4573 69.1286 22.4573H68.6467C68.4861 22.4573 68.3255 22.6287 68.0042 22.6287C67.8436 22.6287 67.683 22.6287 67.683 22.6287L66.8799 22.4573L66.0768 22.1144C65.7556 21.943 65.4343 21.943 65.2737 21.7716C65.1131 21.7716 64.9525 21.4287 64.6313 21.0859C64.6313 20.9144 64.4706 20.9144 64.4706 20.743C64.4706 20.5716 64.31 20.5716 64.31 20.4002L64.1494 19.7144L64.31 19.3716ZM67.2011 20.743H67.3618C67.5224 20.743 67.8436 20.5716 68.0042 20.5716C68.3255 20.5716 68.4861 20.4002 68.6467 20.4002L68.9679 20.0573L69.2892 19.7144L69.4498 19.3716L68.9679 17.6573L68.3255 17.4859H68.1648C68.1648 17.4859 68.0042 17.6573 68.0042 17.8287C67.8436 18.0002 67.8436 18.1716 67.683 18.343C67.5224 18.5144 67.5224 18.8573 67.3618 19.0287C67.2011 19.2002 67.2011 19.543 67.2011 19.7144V20.743ZM65.9162 17.3144C65.7556 17.4859 65.595 17.6573 65.4344 18.0002C65.2737 18.343 65.1131 18.6859 65.1131 18.8573C65.1131 19.0287 65.1131 19.0287 65.1131 19.0287V18.8573L65.7556 17.8287C65.9162 17.6573 65.9162 17.4859 65.9162 17.4859V17.3144Z" fill="#EEFFFC"/>
<path d="M73.4653 19.3716C73.4653 19.2002 73.6259 19.2002 73.6259 19.0287L73.7865 18.8573C73.7865 18.5144 73.9472 18.0002 74.1078 17.4859C74.2684 16.9716 74.5896 16.6287 74.9109 16.4573L75.2321 16.2859C75.2321 16.2859 75.2321 16.2859 75.2321 16.1144C75.2321 15.943 75.2321 15.943 75.2321 15.943L75.3927 15.7716C75.5533 15.4287 75.714 15.2573 76.0352 14.9144C76.1958 14.5716 76.517 14.4002 76.6777 14.0573C76.8383 13.8859 77.1595 13.7144 77.3201 13.543C77.4807 13.3716 77.6414 13.3716 77.802 13.3716H77.9626C77.9626 13.3716 78.1232 13.3716 78.2838 13.543L78.6051 14.0573C78.7657 14.0573 78.7657 14.2287 78.9263 14.4002L79.0869 14.743V15.4287L79.2475 15.6002L79.4082 15.7716C79.4082 15.7716 79.4082 15.7716 79.5688 15.7716L80.0506 16.1144C80.0506 16.2859 80.2112 16.2859 80.2112 16.4573C80.2112 16.6287 80.3719 16.8002 80.5325 16.9716L81.0143 17.6573C81.0143 17.6573 81.175 17.8287 81.175 18.0002C81.175 18.1716 81.3356 18.343 81.3356 18.6859C81.3356 18.8573 81.4962 19.2002 81.4962 19.3716C81.4962 19.543 81.4962 19.7144 81.4962 19.7144V20.0573L81.175 20.9144V21.2573L80.8537 21.6002L79.89 21.7716C79.7294 21.7716 79.5688 21.943 79.4082 21.943C79.2475 21.943 79.0869 21.943 78.9263 22.1144L78.6051 22.2859C78.4445 22.4573 78.2838 22.4573 78.2838 22.4573H77.802C77.6414 22.4573 77.4807 22.6287 77.1595 22.6287C76.9989 22.6287 76.8383 22.6287 76.8383 22.6287L76.0352 22.4573L75.2321 22.1144C74.7502 21.943 74.5896 21.7716 74.429 21.7716C74.2684 21.7716 74.1078 21.4287 73.7865 21.0859C73.7865 20.9144 73.6259 20.9144 73.6259 20.743C73.6259 20.5716 73.4653 20.5716 73.4653 20.4002L73.3047 19.7144L73.4653 19.3716ZM76.3564 20.743H76.517C76.6777 20.743 76.9989 20.5716 77.1595 20.5716C77.4807 20.5716 77.6414 20.4002 77.802 20.4002L78.1232 20.0573L78.4445 19.7144L78.6051 19.3716L78.1232 17.6573L77.4807 17.3144H77.3201C77.3201 17.3144 77.1595 17.4859 77.1595 17.6573C76.9989 17.8287 76.9989 18.0002 76.8383 18.1716C76.6777 18.343 76.6777 18.6859 76.517 18.8573C76.3564 19.0287 76.3564 19.3716 76.3564 19.543V20.743ZM75.0715 17.3144C74.9109 17.4859 74.7503 17.6573 74.5896 18.0002C74.429 18.343 74.2684 18.6859 74.2684 18.8573C74.2684 19.0287 74.2684 19.0287 74.2684 19.0287V18.8573L74.9109 17.8287C75.0715 17.6573 75.0715 17.4859 75.0715 17.4859V17.3144Z" fill="#EEFFFC"/>
<path d="M83.1026 19.0286L83.4239 18V17.8286C83.4239 17.8286 83.4239 17.8286 83.4239 17.6571C83.4239 17.4857 83.4239 17.1429 83.5845 16.9714C83.7451 16.6286 83.7451 16.2857 83.9057 16.1143C84.0663 15.7714 84.227 15.4286 84.3876 15.2571C84.5482 14.9143 84.7088 14.5714 84.8694 14.4C84.8694 14.2286 84.8694 14.2286 85.03 14.0571C85.1907 13.8857 85.1907 13.8857 85.3513 13.8857C85.5119 13.8857 85.8331 13.8857 85.9937 14.0571C86.1544 14.2286 86.4756 14.2286 86.6362 14.4C86.7968 14.5714 87.1181 14.7429 87.2787 14.9143C87.4393 15.0857 87.5999 15.2571 87.5999 15.6V15.9429L90.3304 14.7429H90.8123H90.9729C91.1335 14.7429 91.1335 14.7429 91.2941 14.7429C91.2941 14.7429 91.4547 14.9143 91.6154 15.0857H92.0972C92.2578 15.0857 92.2578 15.2571 92.5791 15.2571C92.7397 15.4286 92.9003 15.4286 92.9003 15.6V16.2857H92.7397V16.4571V16.6286V16.8C92.7397 16.9714 92.7397 17.1429 92.7397 17.1429C92.7397 17.3143 92.7397 17.6571 92.5791 18C92.4184 18.3429 92.4184 18.3429 92.2578 18.3429H92.4184V18.5143V18.6857C92.4184 18.8571 92.4184 19.0286 92.2578 19.3714C92.2578 19.5429 92.2578 19.7143 92.2578 19.8857L92.0972 20.4C92.0972 20.5714 91.9366 20.7429 91.9366 20.9143C91.9366 21.0857 91.9366 21.2571 91.9366 21.6V21.7714C91.9366 21.7714 91.9366 21.9429 91.776 22.1143C91.776 22.2857 91.6154 22.2857 91.6154 22.4571C91.6154 22.6286 91.6154 22.8 91.6154 22.9714H91.4547L91.2941 23.1429C91.1335 23.1429 91.1335 23.3143 90.9729 23.3143C90.9729 23.3143 90.9729 23.3143 90.8123 23.3143C90.8123 23.3143 90.6517 23.3143 90.3304 23.3143C90.1698 23.3143 89.8486 23.1429 89.6879 22.9714C89.5273 22.8 89.5273 22.6286 89.3667 22.2857C89.3667 21.9429 89.2061 21.7714 89.2061 21.4286C89.2061 21.0857 89.2061 20.9143 89.2061 20.7429C89.2061 20.4 89.2061 20.0571 89.2061 19.8857C89.2061 19.5429 89.2061 19.3714 89.2061 19.2C89.2061 19.0286 89.2061 18.6857 89.2061 18.5143C89.2061 18.1714 89.2061 17.8286 89.3667 17.4857C89.3667 17.3143 89.3667 17.1429 89.3667 16.9714C89.3667 16.8 89.3667 16.6286 89.3667 16.4571L89.2061 16.8C88.7242 16.9714 88.0818 17.3143 87.5999 17.6571C87.1181 18 86.7968 18.5143 86.6362 19.0286V19.3714H86.7968C86.7968 19.5429 86.6362 19.5429 86.6362 19.7143C86.6362 19.7143 86.6362 19.8857 86.6362 20.0571L86.9574 19.8857C86.9574 20.2286 86.7968 20.5714 86.6362 20.7429C86.4756 20.9143 86.315 21.0857 86.315 21.2571L86.6362 22.2857V23.3143H86.315C86.315 23.3143 86.1544 23.3143 86.1544 23.4857L85.9937 23.6571L84.227 23.4857L83.1026 22.8L83.4239 22.2857H83.2633H83.1026C83.1026 22.1143 83.1026 22.1143 83.1026 21.9429V22.1143L83.7451 21.4286C83.7451 21.2571 83.7451 21.2571 83.5845 21.2571L83.4239 21.4286C83.4239 21.4286 83.2633 21.4286 83.1026 21.4286C83.1026 21.2571 83.1026 20.9143 83.2633 20.7429C83.4239 20.5714 83.4239 20.4 83.4239 20.2286C83.4239 20.2286 83.2633 20.2286 83.2633 20.0571H83.1026C83.1026 20.0571 83.2633 19.8857 83.2633 19.7143C83.4239 19.5429 83.4239 19.3714 83.4239 19.3714L83.1026 19.0286ZM83.5845 21.0857C83.7451 21.0857 83.7451 21.0857 83.5845 21.0857C83.7451 20.7429 83.7451 20.5714 83.9057 20.2286C83.9057 20.2286 83.7451 20.4 83.7451 20.5714C83.5845 20.7429 83.5845 20.9143 83.5845 21.0857ZM83.1026 20.0571C82.942 20.0571 83.1026 20.2286 83.1026 20.2286V20.0571ZM83.2633 20.9143V20.7429C83.2633 20.7429 83.2633 20.7429 83.2633 20.9143ZM83.4239 19.8857V19.7143V19.8857Z" fill="#EEFFFC"/>
<path d="M113.46 29.6571C113.46 29.6571 113.46 29.4857 113.299 29.4857C113.299 29.4857 113.139 29.3143 113.139 29.1429V28.9714L113.46 29.3143L113.621 29.1429C113.621 29.1429 113.621 29.1429 113.621 28.9714C113.621 28.9714 113.621 28.8 113.621 28.6286C113.621 28.4571 113.781 28.4571 113.781 28.4571H113.46C113.46 28.4571 113.46 28.4571 113.46 28.2857C113.46 28.1143 113.46 28.1143 113.299 27.9429H113.46V27.7714C113.46 27.6 113.46 27.4286 113.299 27.4286L113.139 27.6C113.139 27.7714 113.139 27.7714 113.139 27.7714H112.978V27.9429C112.978 28.1143 112.978 28.1143 112.978 28.1143H112.818C112.818 28.1143 112.818 27.9429 112.818 27.7714C112.818 27.6 112.818 27.6 112.818 27.4286C112.818 27.4286 112.818 27.2571 112.818 27.0857C112.818 26.9143 112.978 26.7429 113.139 26.5714C113.139 26.7429 113.139 26.7429 113.139 26.9143V27.0857V26.9143C113.139 26.7429 113.139 26.5714 112.978 26.4C112.978 26.2286 112.818 26.2286 112.818 26.0571L112.657 25.8857C112.657 25.8857 112.496 25.7143 112.496 25.3714C112.496 25.2 112.496 25.0286 112.496 24.8571C112.496 24.8571 112.496 25.0286 112.336 25.0286C112.175 25.0286 112.175 25.0286 112.175 25.0286C112.175 24.8571 112.014 24.8571 112.014 24.5143C112.014 24.3429 111.854 24.1714 111.693 24C111.693 24.3429 111.693 24.5143 111.693 24.5143C111.693 24.5143 111.693 24.5143 111.693 24.6857C111.693 24.6857 111.693 24.6857 111.693 24.8571C111.533 24.8571 111.533 24.8571 111.533 24.6857L111.693 23.6571C111.693 23.6571 111.693 23.4857 111.533 23.3143C111.372 23.4857 111.372 23.4857 111.372 23.4857L111.211 23.6571C111.211 23.6571 111.051 23.4857 110.89 23.1429C110.729 22.8 110.729 22.6286 110.729 22.6286V22.2857C110.729 22.1143 110.569 21.9429 110.408 21.7714C110.248 21.6 110.248 21.4286 110.248 21.0857V20.9143H110.087C110.087 20.7429 110.087 20.7429 110.087 20.5714C110.087 20.4 110.087 20.4 110.087 20.2286L109.926 19.8857L109.605 20.0571L108.481 17.1429C108.481 16.9714 108.32 16.9714 108.32 16.8C108.32 16.8 108.32 16.8 108.32 16.6286C108.32 16.4571 108.32 16.4571 108.16 16.2857H107.678H107.517H107.035C106.875 16.2857 106.553 16.1143 106.393 16.1143C106.232 16.1143 106.232 15.9429 106.072 15.9429C105.911 16.6286 105.911 16.9714 105.911 16.9714V17.3143V17.4857V17.6571V17.8286L105.75 18.1714V18.5143C105.75 18.8571 105.75 19.0286 105.75 19.2C105.75 19.3714 105.75 19.5429 105.59 19.5429V19.7143V19.8857V20.0571C105.59 20.0571 105.59 20.2286 105.59 20.4L105.429 20.7429V21.9429V21.7714C105.429 21.7714 105.429 21.9429 105.429 22.1143C105.429 22.2857 105.429 22.4571 105.429 22.4571V22.6286V23.1429V23.3143V23.6571V23.8286L105.268 24L104.465 24.3429L103.502 24.5143L102.699 24.3429C102.377 24.1714 102.056 24 102.056 23.8286C101.896 23.6571 101.896 23.3143 101.896 22.9714C101.896 22.9714 101.896 22.8 101.896 22.6286C101.896 22.4571 101.896 22.2857 101.896 21.9429C101.896 21.7714 101.896 21.6 101.896 21.2571C101.896 21.0857 101.896 20.9143 102.056 20.9143V22.6286L102.217 22.8C102.217 22.4571 102.217 21.9429 102.217 21.2571C102.217 20.5714 102.377 19.7143 102.538 18.8571C102.538 18.8571 102.377 18.6857 102.377 18.3429C102.377 18 102.377 17.8286 102.538 17.8286C102.538 18 102.538 18.1714 102.538 18.1714L103.02 16.4571H102.859C102.859 16.2857 102.859 16.1143 103.02 16.1143L103.18 15.9429V15.6C103.341 14.2286 103.662 12.8571 103.984 11.3143C104.305 9.94286 104.787 8.57143 105.108 7.37143C105.108 7.2 105.268 7.02857 105.268 6.68571C105.429 6.34286 105.429 6.17143 105.429 6.17143L105.59 6H106.072C106.232 6 106.393 6 106.714 6C106.875 6 107.196 6 107.357 6H107.517C107.678 6.17143 107.838 6.34286 107.838 6.51429C107.838 6.68571 107.999 6.85714 107.999 7.02857C107.999 7.02857 107.999 7.02857 107.999 7.2C107.999 7.37143 107.999 7.37143 107.999 7.54286C107.999 7.71429 107.999 7.71428 107.999 7.88571C107.999 8.05714 107.999 8.05714 107.999 8.05714L109.284 7.2C109.284 7.2 109.445 7.02857 109.766 7.02857C110.087 6.85714 110.408 6.85714 110.729 6.68571C111.051 6.68571 111.372 6.51429 111.693 6.51429C112.014 6.51429 112.336 6.51429 112.336 6.51429L112.496 6.68571H112.657V6.51429H112.818C112.818 6.51429 112.978 6.51429 113.139 6.68571C113.299 6.68571 113.299 6.85714 113.46 6.85714C113.621 6.85714 113.942 7.02857 114.263 7.02857C114.584 7.02857 114.745 7.2 114.906 7.2C115.066 7.37143 115.227 7.54286 115.387 7.71429C115.548 7.88571 115.548 8.22857 115.548 8.74286L115.709 8.57143V8.74286L115.387 9.77143V9.94286L115.227 10.2857C115.227 10.2857 115.227 10.4571 115.066 10.6286C115.066 10.8 115.066 10.8 115.066 10.9714V11.1429C115.066 11.1429 115.066 11.3143 114.906 11.6571V12V12.1714C114.906 12.1714 114.906 12.3429 114.906 12.5143V12.6857C114.906 12.8571 114.906 13.0286 114.745 13.0286V13.2C114.745 13.3714 114.584 13.7143 114.424 14.0571C114.263 14.4 114.102 14.5714 114.102 14.7429V14.9143L113.942 15.0857C113.942 15.0857 113.781 15.2571 113.621 15.2571C113.46 15.2571 113.299 15.4286 113.299 15.4286L112.978 15.6H112.818C112.657 15.6 112.496 15.6 112.496 15.7714C112.336 15.7714 112.175 15.9429 112.014 15.9429C111.854 15.9429 111.854 15.9429 111.854 15.9429C111.854 16.2857 112.014 16.4571 112.175 16.6286C112.336 16.8 112.496 16.9714 112.496 17.1429C112.496 17.3143 112.496 17.6571 112.657 17.8286C112.818 18.1714 112.818 18.3429 112.978 18.6857C113.139 19.0286 113.299 19.2 113.299 19.3714C113.46 19.5429 113.46 19.7143 113.46 19.7143V20.0571L113.299 19.8857L114.102 21.4286L114.263 22.1143L114.584 22.2857V22.4571L114.424 22.6286C114.424 22.6286 114.584 22.8 114.745 22.9714C114.906 23.1429 114.906 23.3143 115.066 23.3143L115.227 23.4857L115.387 23.8286C115.387 23.8286 115.387 24 115.387 24.1714V24.5143L115.548 25.0286C115.548 25.2 115.709 25.3714 115.709 25.3714L116.03 26.2286L115.869 26.4L115.709 26.5714L115.869 26.9143H116.03L116.19 27.0857L116.351 27.4286L116.512 27.2571L116.833 28.4571V28.6286C116.833 28.8 116.833 28.8 116.833 28.9714C116.833 28.9714 116.833 29.1429 116.672 29.1429C116.672 29.1429 116.512 29.3143 116.512 29.4857C116.351 29.4857 116.19 29.3143 116.19 29.3143H116.03C115.869 29.3143 115.869 29.3143 115.709 29.4857C115.548 29.6571 115.548 29.6571 115.548 29.8286C115.548 30 115.548 30 115.548 30H115.227V29.8286H115.066V30L114.906 29.6571C114.906 29.6571 114.745 29.8286 114.584 29.8286C114.424 29.8286 114.424 30 114.263 30V29.8286C114.102 29.8286 114.102 29.8286 113.942 30C113.781 30 113.621 29.8286 113.46 29.6571ZM106.875 13.3714C106.875 13.3714 106.714 13.5429 106.714 13.8857C106.714 14.0571 106.553 14.4 106.393 14.7429C106.714 14.5714 107.196 14.5714 107.517 14.5714C107.838 14.5714 108.32 14.5714 108.641 14.4C108.802 14.4 108.963 14.2286 109.284 14.2286C109.605 14.0571 109.766 14.0571 109.926 13.8857C110.087 13.7143 110.248 13.7143 110.408 13.7143C110.569 13.7143 110.729 13.7143 111.051 13.5429C111.211 13.5429 111.372 13.3714 111.533 13.2C111.693 13.0286 111.693 12.6857 111.693 12.3429C111.693 12 111.854 11.6571 111.854 11.4857C111.854 11.3143 112.014 11.1429 112.014 10.8C112.014 10.6286 112.175 10.4571 112.175 10.1143C112.175 9.94286 112.175 9.6 112.175 9.25714C112.014 9.25714 111.854 9.25714 111.693 9.42857C111.533 9.42857 111.372 9.6 111.211 9.6C111.051 9.6 111.051 9.6 110.89 9.6C110.729 9.6 110.729 9.6 110.569 9.6H110.408C110.248 9.77143 110.087 9.77143 109.766 9.94286C109.605 9.94286 109.284 10.1143 109.123 10.1143C108.963 10.1143 108.802 10.2857 108.481 10.2857C108.32 10.2857 108.16 10.4571 108.16 10.4571H107.678H107.357H107.035V10.6286V10.8V10.9714V10.8H107.196C107.196 11.1429 107.035 11.4857 106.875 12C107.035 12.6857 107.035 13.0286 106.875 13.3714ZM113.942 27.0857C113.942 27.2571 114.102 27.2571 114.102 27.2571C114.102 27.2571 114.102 27.2571 114.102 27.0857C114.102 26.9143 114.102 26.7429 114.102 26.5714C114.102 26.4 114.102 26.0571 113.942 25.8857C113.942 25.7143 113.781 25.5429 113.621 25.2C113.46 25.0286 113.299 25.0286 113.139 25.0286V25.2C113.299 25.3714 113.299 25.3714 113.299 25.3714C113.299 25.3714 113.46 25.3714 113.621 25.5429L113.46 25.8857C113.46 25.8857 113.46 26.0571 113.621 26.0571C113.781 26.0571 113.781 26.2286 113.781 26.4C113.781 26.5714 113.781 26.7429 113.621 26.7429C113.621 26.7429 113.621 26.7429 113.781 26.7429L113.942 27.0857ZM111.693 25.0286C111.854 25.2 111.854 25.2 111.854 25.3714C111.854 25.5429 111.854 25.5429 111.854 25.5429C111.854 25.7143 111.854 25.7143 111.854 25.8857C111.693 25.7143 111.693 25.5429 111.533 25.3714C111.533 25.2 111.533 25.2 111.693 25.0286C111.533 25.0286 111.533 25.0286 111.693 25.0286ZM102.056 20.7429C101.896 20.7429 101.896 20.5714 101.896 20.5714C101.896 20.4 101.896 20.4 101.896 20.2286C101.896 20.0571 101.896 19.8857 101.896 19.8857C101.896 19.7143 101.896 19.7143 101.896 19.5429V20.7429H102.056ZM113.621 28.1143L113.781 28.2857L113.621 28.1143ZM112.336 25.5429C112.496 25.5429 112.496 25.5429 112.496 25.5429H112.336ZM114.102 27.6C114.102 27.6 114.102 27.6 113.942 27.4286L114.102 27.6Z" fill="#EEFFFC"/>
<path d="M122.454 22.2859C122.936 22.4574 123.097 22.4574 123.097 22.6288V22.9717C123.097 23.3145 123.097 23.4859 123.257 23.6574C123.257 23.8288 123.418 23.8288 123.418 23.8288C123.418 23.8288 123.257 23.8288 123.097 23.8288C122.936 23.8288 122.615 23.8288 122.454 23.8288C122.133 23.8288 121.973 23.8288 121.651 23.8288C121.33 23.8288 121.169 23.8288 121.009 23.8288H120.688C120.206 23.8288 119.724 23.6574 119.403 23.4859C119.081 23.3145 118.76 22.9717 118.6 22.6288H118.439V22.1145C118.439 21.9431 118.278 21.7717 118.278 21.6002C118.278 21.4288 118.278 21.2574 118.278 21.086C118.278 20.9145 118.439 20.7431 118.439 20.7431C118.6 20.5717 118.6 20.5717 118.76 20.4002C118.921 20.2288 118.921 20.2288 118.921 20.2288C118.921 20.0574 118.921 19.8859 119.081 19.7145C119.242 19.5431 119.403 19.3717 119.563 19.0288C119.724 18.8574 120.045 18.686 120.206 18.5145C120.366 18.3431 120.688 18.1717 120.848 18.0002H121.169C121.169 18.0002 121.33 18.0002 121.491 18.0002C121.651 18.0002 121.812 17.8288 121.973 17.8288L122.454 17.486C122.615 17.486 122.776 17.3145 122.776 17.1431L124.221 16.4574C124.221 16.4574 124.221 16.2859 124.382 16.2859L124.542 16.1145L124.221 14.9145C124.221 14.9145 124.221 14.9145 124.061 14.9145C123.9 14.9145 123.739 14.9145 123.418 14.9145C123.097 14.9145 122.776 15.086 122.615 15.086C122.294 15.086 121.973 15.2574 121.812 15.2574C121.651 15.2574 121.491 15.2574 121.491 15.2574C121.491 15.2574 121.491 15.2574 121.33 15.2574C121.169 15.2574 121.009 15.2574 120.848 15.086C120.688 14.9145 120.527 14.7431 120.527 14.7431L120.206 14.5717L120.045 14.4002V14.2288V14.0574V13.886C120.045 13.7145 120.206 13.7145 120.688 13.5431C121.009 13.3717 121.651 13.3717 122.133 13.2002C122.776 13.2002 123.418 13.0288 124.061 13.0288C124.703 13.0288 125.345 13.0288 125.988 13.0288H126.149C126.47 13.0288 126.791 13.0288 126.952 13.2002C127.112 13.3717 127.273 13.3717 127.434 13.5431C127.594 13.7145 127.755 13.886 127.755 14.0574C127.915 14.2288 127.915 14.4002 128.076 14.5717V15.2574C128.076 15.6002 128.076 15.7717 128.076 15.9431C128.076 16.1145 128.076 16.286 128.076 16.4574C128.076 16.6288 128.076 16.8002 128.076 16.9717C128.076 17.1431 128.076 17.3145 127.915 17.6574C127.915 17.8288 127.915 17.8288 127.915 18.0002C127.915 18.0002 127.915 18.1717 127.915 18.3431V18.686L127.594 19.0288L127.755 19.3717L127.434 19.7145V19.8859V20.0574V20.7431H127.755V20.9145L127.594 21.086V21.2574V21.6002C127.434 21.7717 127.434 22.1145 127.273 22.6288C127.273 22.9717 127.112 23.3145 127.112 23.4859C127.112 23.4859 126.952 23.4859 126.791 23.4859C126.63 23.4859 126.47 23.4859 126.309 23.4859C126.149 23.4859 125.988 23.4859 125.827 23.4859C125.667 23.4859 125.667 23.4859 125.667 23.4859C125.506 23.4859 125.345 23.4859 125.024 23.3145C124.864 23.1431 124.703 22.9717 124.703 22.8002C124.703 22.6288 124.542 22.4574 124.542 22.1145C124.542 21.9431 124.542 21.7717 124.542 21.4288C124.542 21.0859 124.542 20.7431 124.703 20.4002C124.864 20.0574 124.864 19.7145 124.864 19.2002C124.864 19.0288 124.864 18.8574 124.864 18.5145C124.864 18.3431 124.864 18.1717 124.542 18.1717L124.382 18.3431L124.221 18.5145H124.061C124.061 18.5145 123.9 18.5145 123.739 18.686C123.579 18.686 123.418 18.8574 123.257 19.0288C123.097 19.2002 122.936 19.2002 122.776 19.3717C122.615 19.5431 122.615 19.5431 122.454 19.5431C122.133 19.7145 121.973 19.886 121.651 20.0574C121.491 20.2288 121.169 20.4002 121.009 20.5717V21.086V21.2574V21.4288L121.169 21.2574L121.33 21.4288C121.491 21.4288 121.651 21.4288 121.812 21.4288C121.973 21.4288 122.133 21.4288 122.133 21.4288C122.294 21.4288 122.454 21.4288 122.615 21.6002C122.133 22.1145 122.294 22.2859 122.454 22.2859Z" fill="#EEFFFC"/>
<path d="M129.361 21.6002C129.361 21.6002 129.361 21.4288 129.361 21.2573C129.361 21.0859 129.361 20.9145 129.361 20.7431C129.361 20.5716 129.361 20.4002 129.361 20.2288C129.361 20.0573 129.361 20.0573 129.361 19.8859L129.521 19.5431C129.521 19.5431 129.521 19.3716 129.682 19.3716C129.682 19.2002 129.843 19.2002 129.843 19.0288L130.003 19.2002V18.5145L130.164 18.1716C130.164 18.1716 130.164 18.1716 130.164 18.0002V17.8288C130.164 17.6573 130.164 17.6573 130.164 17.6573C130.003 17.6573 130.003 17.6573 130.003 17.6573H129.843V17.4859V17.1431C129.843 16.8002 130.003 16.4573 130.003 16.1145C130.003 15.7716 130.003 15.4288 130.003 15.0859L130.485 11.4859C130.485 11.4859 130.485 11.3145 130.485 11.1431C130.485 10.9716 130.485 10.8002 130.646 10.4573L130.806 9.60019L130.967 9.08591C130.967 9.08591 130.967 8.91448 131.128 8.57162C131.288 8.40019 131.288 8.22877 131.288 8.05734V7.88591V8.05734C131.288 7.71448 131.449 7.54305 131.77 7.37162C132.091 7.37162 132.413 7.2002 132.734 7.2002L132.894 7.37162C133.055 7.54305 133.055 7.54305 133.216 7.54305C133.216 7.54305 133.376 7.54305 133.697 7.71448L134.019 8.05734L134.179 8.4002V8.57162V8.74305V8.91448V9.25734C134.179 9.6002 134.019 9.94305 133.858 10.1145C133.697 10.2859 133.537 10.6288 133.537 10.9716V11.1431L133.376 11.4859C133.376 11.6573 133.376 11.8288 133.376 11.8288V12.1716V12.3431C133.376 12.3431 133.376 12.5145 133.376 12.8573C133.376 13.2002 133.376 13.3716 133.376 13.3716V13.5431V13.7145V14.9145V15.0859H133.537C133.537 15.0859 133.537 15.2573 133.537 15.4288C133.537 15.6002 133.537 15.7716 133.376 16.1145C133.537 15.9431 133.537 15.9431 133.858 15.7716C134.019 15.6002 134.34 15.6002 134.501 15.4288C134.822 15.2573 134.982 15.2573 135.304 15.0859C135.625 15.0859 135.785 14.9145 136.107 14.9145C136.107 14.9145 136.267 14.9145 136.428 14.9145C136.589 14.9145 136.749 14.9145 136.749 14.7431H137.231H137.392C137.552 14.7431 137.552 14.7431 137.713 14.7431L138.355 14.9145L139.319 15.9431V16.2859L139.48 16.9716V17.1431V17.3145V17.4859V17.6573V17.8288C139.48 18.0002 139.48 18.1716 139.48 18.1716C139.48 18.3431 139.48 18.5145 139.48 18.5145L139.319 18.6859V18.8573C139.319 19.0288 139.319 19.2002 139.319 19.3716C139.319 19.5431 139.319 19.5431 139.319 19.5431L139.158 19.8859V20.2288C139.158 20.4002 139.158 20.5716 139.158 20.9145C139.158 21.2573 139.158 21.4288 139.158 21.4288L138.998 22.4573C138.998 22.6288 138.837 22.8002 138.516 22.8002C138.195 22.9716 138.034 22.9716 138.034 23.1431L136.749 23.4859C136.589 23.4859 136.428 23.4859 136.107 23.4859C135.946 23.4859 135.625 23.4859 135.304 23.4859C134.822 23.4859 134.34 23.4859 133.858 23.3145C133.376 23.3145 133.216 23.1431 133.216 22.8002C132.894 22.8002 132.573 22.6288 132.573 22.2859C132.573 22.2859 132.573 22.2859 132.573 22.4573V22.6288C132.573 22.8002 132.573 22.9716 132.573 22.9716C132.573 23.1431 132.413 23.1431 132.252 23.3145C132.252 23.4859 132.091 23.4859 132.091 23.6573C132.091 23.6573 131.931 23.6573 131.931 23.4859C131.931 23.4859 131.931 23.4859 131.77 23.4859C131.609 23.4859 131.609 23.4859 131.609 23.6573C131.288 23.4859 130.967 23.3145 130.646 23.3145C130.325 23.3145 130.164 23.3145 129.843 23.3145C129.682 23.3145 129.521 23.1431 129.361 22.9716C129.2 22.8002 129.2 22.4573 129.2 21.9431C129.2 21.7716 129.2 21.7716 129.361 21.6002C129.2 21.6002 129.361 21.6002 129.361 21.6002ZM132.573 21.7716C133.216 21.7716 133.697 21.6002 134.179 21.4288C134.661 21.2573 135.143 21.0859 135.625 21.0859H135.786H135.946L136.107 20.4002L136.428 17.1431V16.6288C136.267 16.6288 136.107 16.8002 135.786 16.9716C135.464 16.9716 135.304 17.1431 134.982 17.3145C134.661 17.4859 134.501 17.4859 134.179 17.6573C133.858 17.8288 133.858 18.0002 133.697 18.1716V18.3431V18.5145L132.894 19.7145L132.734 20.2288V20.0573V20.2288C132.734 20.4002 132.734 20.4002 132.734 20.5716V20.7431V20.9145L132.573 21.7716ZM130.646 18.3431L130.485 18.5145C130.485 18.6859 130.485 18.6859 130.325 19.0288C130.325 19.2002 130.325 19.3716 130.325 19.3716V19.5431V19.7145H130.485L130.646 19.3716C130.646 19.3716 130.646 19.2002 130.646 19.0288C130.646 18.8573 130.646 18.6859 130.646 18.6859V18.5145V18.3431ZM129.843 19.7145L129.682 19.8859C129.682 20.0573 129.682 20.0573 129.682 20.0573V20.2288L129.843 20.0573V19.7145ZM129.521 20.9145V21.4288L129.682 21.2573V21.0859C129.682 21.0859 129.682 21.0859 129.521 20.9145C129.682 20.9145 129.682 20.9145 129.521 20.9145V20.5716V20.9145ZM130.485 17.3145C130.485 17.1431 130.325 17.1431 130.485 17.3145C130.325 17.3145 130.325 17.3145 130.325 17.3145C130.325 17.3145 130.325 17.4859 130.485 17.4859V17.3145ZM130.325 20.5716L130.485 20.2288L130.325 20.5716Z" fill="#EEFFFC"/>
<path d="M141.247 21.6002C141.247 21.6002 141.247 21.4288 141.247 21.2573C141.247 21.0859 141.247 20.9145 141.247 20.7431C141.247 20.5716 141.247 20.4002 141.247 20.2288C141.247 20.0573 141.247 20.0573 141.247 19.8859L141.407 19.5431C141.407 19.5431 141.407 19.3716 141.568 19.3716C141.568 19.2002 141.728 19.2002 141.728 19.0288L141.889 19.2002V18.5145L142.05 18.1716C142.05 18.1716 142.05 18.1716 142.05 18.0002V17.8288C142.05 17.6573 142.05 17.6573 142.05 17.6573C141.889 17.6573 141.889 17.6573 141.889 17.6573H141.728V17.4859V17.1431C141.728 16.8002 141.889 16.4573 141.889 16.1145C141.889 15.7716 141.889 15.4288 141.889 15.0859L142.371 11.4859C142.371 11.4859 142.371 11.3145 142.371 11.1431C142.371 10.9716 142.371 10.8002 142.531 10.4573L142.692 9.60019L142.853 9.08591C142.853 9.08591 142.853 8.91448 143.013 8.57162C143.174 8.40019 143.174 8.22877 143.174 8.05734V7.88591V8.05734C143.174 7.71448 143.335 7.54305 143.656 7.37162C143.977 7.37162 144.298 7.2002 144.62 7.2002L144.78 7.37162C144.941 7.54305 144.941 7.54305 145.101 7.54305C145.101 7.54305 145.262 7.54305 145.583 7.71448L145.904 8.05734L146.065 8.4002V8.57162V8.74305V8.91448V9.25734C146.065 9.6002 145.904 9.94305 145.744 10.1145C145.583 10.2859 145.423 10.6288 145.423 10.9716V11.1431L145.262 11.4859C145.262 11.6573 145.262 11.8288 145.262 11.8288V12.1716V12.3431C145.262 12.3431 145.262 12.5145 145.262 12.8573C145.262 13.2002 145.262 13.3716 145.262 13.3716V13.5431V13.7145V14.9145V15.0859H145.423C145.423 15.0859 145.423 15.2573 145.423 15.4288C145.423 15.6002 145.423 15.7716 145.262 16.1145C145.423 15.9431 145.423 15.9431 145.744 15.7716C145.904 15.6002 146.226 15.6002 146.386 15.4288C146.708 15.2573 146.868 15.2573 147.189 15.0859C147.511 15.0859 147.671 14.9145 147.992 14.9145C147.992 14.9145 148.153 14.9145 148.314 14.9145C148.474 14.9145 148.635 14.9145 148.635 14.7431H149.117H149.277C149.438 14.7431 149.438 14.7431 149.599 14.7431L150.241 14.9145L151.205 15.9431V16.2859L151.365 16.9716V17.1431V17.3145V17.4859V17.6573V17.8288C151.365 18.0002 151.365 18.1716 151.365 18.1716C151.365 18.3431 151.365 18.5145 151.365 18.5145L151.205 18.6859V18.8573C151.205 19.0288 151.205 19.2002 151.205 19.3716C151.205 19.5431 151.205 19.5431 151.205 19.5431L151.044 19.8859V20.2288C151.044 20.4002 151.044 20.5716 151.044 20.9145C151.044 21.2573 151.044 21.4288 151.044 21.4288L150.241 22.8002C150.241 22.9716 150.081 23.1431 149.759 23.1431C149.438 23.1431 149.277 23.3145 149.277 23.4859H148.635C148.474 23.4859 148.314 23.4859 147.992 23.4859C147.832 23.4859 147.511 23.4859 147.189 23.4859C146.708 23.4859 146.226 23.4859 145.744 23.3145C145.262 23.3145 145.101 23.1431 145.101 22.8002C144.78 22.8002 144.459 22.6288 144.459 22.2859C144.459 22.2859 144.459 22.2859 144.459 22.4573V22.6288C144.459 22.8002 144.459 22.9716 144.459 22.9716C144.459 23.1431 144.298 23.1431 144.138 23.3145C144.138 23.4859 143.977 23.4859 143.977 23.6573C143.977 23.6573 143.816 23.6573 143.816 23.4859C143.816 23.4859 143.816 23.4859 143.656 23.4859C143.656 23.4859 143.495 23.4859 143.495 23.6573C143.174 23.4859 142.853 23.3145 142.531 23.3145C142.21 23.3145 142.05 23.3145 141.728 23.3145C141.568 23.3145 141.407 23.1431 141.247 22.9716C141.086 22.8002 141.086 22.4573 141.086 21.9431C141.247 21.7716 141.247 21.7716 141.247 21.6002ZM144.459 21.7716C145.101 21.7716 145.583 21.6002 146.065 21.4288C146.547 21.2573 147.029 21.0859 147.511 21.0859H147.671H147.832L147.992 20.4002L148.314 17.1431V16.6288C148.153 16.6288 147.992 16.8002 147.671 16.9716C147.35 16.9716 147.189 17.1431 146.868 17.3145C146.547 17.4859 146.386 17.4859 146.065 17.6573C145.904 17.8288 145.744 18.0002 145.583 18.1716V18.3431V18.5145L144.78 19.7145L144.62 20.2288V20.0573V20.2288C144.62 20.4002 144.62 20.4002 144.62 20.5716V20.7431V20.9145L144.459 21.7716ZM142.531 18.3431L142.371 18.5145C142.371 18.6859 142.371 18.6859 142.21 19.0288C142.21 19.2002 142.21 19.3716 142.21 19.3716V19.5431V19.7145H142.371L142.531 19.3716C142.531 19.3716 142.531 19.2002 142.531 19.0288C142.531 18.8573 142.531 18.6859 142.531 18.6859V18.5145V18.3431ZM141.728 19.7145L141.568 19.8859C141.568 20.0573 141.568 20.0573 141.568 20.0573V20.2288L141.728 20.0573V19.7145ZM141.568 20.9145C141.407 20.9145 141.407 20.9145 141.568 20.9145V21.4288L141.728 21.2573V21.0859C141.568 21.0859 141.568 21.0859 141.568 20.9145V20.5716V20.9145ZM142.371 17.3145C142.371 17.1431 142.371 17.1431 142.371 17.3145C142.21 17.3145 142.21 17.3145 142.21 17.3145C142.21 17.3145 142.21 17.4859 142.371 17.4859V17.3145ZM142.21 20.5716L142.371 20.2288L142.21 20.5716Z" fill="#EEFFFC"/>
<path d="M153.614 23.4858C153.454 23.3144 153.293 23.3144 153.293 23.1429C153.293 22.9715 153.293 22.8001 153.293 22.6286V22.1144L153.935 15.6001C153.935 15.6001 153.935 15.6001 153.935 15.4286C153.935 15.4286 153.935 15.4286 153.935 15.0858C153.935 14.9144 153.935 14.7429 154.096 14.4001C154.096 14.2286 154.257 13.8858 154.257 13.7144C154.257 13.5429 154.417 13.3715 154.417 13.3715C154.417 13.3715 154.578 13.3715 154.739 13.3715C154.899 13.3715 154.899 13.3715 155.06 13.3715C155.381 13.3715 155.542 13.5429 155.863 13.5429C156.184 13.5429 156.505 13.7144 156.827 13.8858C157.148 14.0572 157.469 14.2286 157.63 14.4001C157.79 14.5715 157.951 14.9144 157.951 15.2572L157.63 16.1144C157.469 16.2858 157.469 16.6286 157.308 16.9715C157.308 17.1429 157.148 17.4858 157.148 17.6572C157.148 17.6572 157.148 17.8286 157.148 18.0001C157.148 18.1715 157.148 18.3429 157.148 18.5144C157.148 18.6858 157.148 18.8572 157.148 19.0286C157.148 19.2001 157.148 19.3715 157.148 19.5429V20.2286C157.148 20.2286 157.148 20.2286 157.148 20.4001V20.5715V20.7429H156.987V21.0858V21.2572H156.827H156.666C156.666 21.2572 156.666 21.4286 156.666 21.7715C156.666 21.9429 156.666 22.1144 156.505 22.2858C156.505 22.2858 156.666 22.1144 156.827 21.9429C156.987 21.7715 156.987 21.6001 157.148 21.6001C157.148 21.9429 156.987 22.2858 156.987 22.6286C156.987 22.9715 156.987 23.3144 156.987 23.4858L157.148 23.8286L156.345 23.4858L156.184 23.6572C156.184 23.6572 156.023 23.6572 155.863 23.6572H155.702L155.22 23.4858H155.06L154.578 23.8286H154.257V23.6572H153.775L153.614 23.4858ZM153.775 10.2858C153.775 9.7715 153.775 9.25721 153.935 8.91436C154.096 8.5715 154.257 8.05721 154.578 7.71436L154.739 7.88578C154.739 7.88578 154.739 7.88578 154.899 7.88578H155.06H156.023C156.184 7.88578 156.345 8.05721 156.345 8.22864C156.505 8.40007 156.505 8.5715 156.666 8.5715H156.827C156.987 8.5715 157.148 8.5715 157.308 8.74293C157.469 8.91435 157.63 8.91436 157.63 9.08578C157.79 9.25721 157.79 9.42864 157.951 9.60007C157.951 9.7715 158.111 9.94293 158.111 10.1144C158.111 10.2858 157.951 10.4572 157.79 10.6286C157.63 10.8001 157.308 10.9715 156.987 11.1429C156.666 11.3144 156.345 11.4858 156.023 11.4858C155.702 11.6572 155.542 11.6572 155.22 11.6572C154.899 11.6572 154.578 11.4858 154.257 11.3144C153.935 10.9715 153.775 10.6286 153.775 10.2858ZM155.863 21.2572C155.863 21.2572 155.863 21.4286 155.863 21.6001C155.863 21.7715 155.863 21.7715 156.023 21.9429V21.4286H156.184V21.2572C156.023 21.0858 156.023 21.0858 155.863 21.2572ZM155.863 23.4858H156.184V23.3144H155.863V23.4858ZM156.345 23.8286L156.505 24.0001C156.505 24.1715 156.505 24.1715 156.345 24.1715C156.184 24.1715 156.184 24.1715 156.184 24.0001C156.184 23.8286 156.184 23.8286 156.345 23.8286ZM156.505 20.4001C156.505 20.5715 156.505 20.5715 156.505 20.5715L156.666 20.4001V20.2286L156.505 20.4001Z" fill="#EEFFFC"/>
<path d="M170.318 14.4002V14.5717V14.4002L169.354 14.7431C169.354 14.7431 169.354 14.7431 169.194 14.7431C169.033 14.7431 169.194 14.7431 169.194 14.7431H169.033C168.873 14.7431 168.551 14.7431 168.23 14.7431C167.909 14.7431 167.588 14.7431 167.427 14.7431C167.106 14.7431 166.945 14.7431 166.624 14.9145C166.463 14.9145 166.303 15.086 166.303 15.086H166.142V15.2574C166.142 15.4288 166.142 15.4288 165.981 15.4288C165.981 15.4288 165.821 15.6002 165.821 15.7717C165.821 15.9431 165.821 15.9431 165.981 15.9431C165.821 15.9431 165.821 16.1145 165.821 16.4574C165.821 16.6288 165.821 16.8002 165.981 16.8002L166.142 17.1431C165.981 17.3145 165.821 17.4859 165.821 17.6574C165.821 17.8288 165.821 17.8288 165.821 18.0002C165.821 18.1717 165.821 18.3431 165.821 18.3431V18.5145C165.821 18.5145 165.821 18.5145 165.821 18.686C165.821 18.8574 165.821 19.2002 165.66 19.3717C165.66 19.7145 165.5 19.8859 165.5 19.8859V20.0574H165.66L165.5 20.2288C165.5 20.2288 165.5 20.2288 165.5 20.4002H165.821L165.5 21.6002H165.66C165.821 21.6002 165.981 21.6002 166.303 21.6002C166.463 21.6002 166.624 21.6002 166.945 21.4288C167.106 21.2574 167.266 21.2574 167.427 21.2574H167.588C167.748 21.2574 167.748 21.2574 167.909 21.2574C168.069 21.2574 168.23 21.2574 168.23 21.2574H169.836H169.997C170.157 21.2574 170.157 21.2574 170.318 21.4288C170.479 21.4288 170.479 21.6002 170.639 21.6002H170.8C170.8 21.7717 170.8 21.9431 170.639 22.1145C170.479 22.2859 170.318 22.4574 170.318 22.4574L168.712 22.9717L166.624 23.1431C166.463 23.1431 166.142 23.3145 165.821 23.4859C165.5 23.6574 165.178 23.8288 164.857 23.8288V23.6574L163.733 23.4859C163.412 23.3145 163.251 23.1431 163.09 23.1431C162.93 23.1431 162.93 22.9717 162.769 22.9717H162.608C162.608 22.9717 162.448 22.8002 162.287 22.8002C162.287 22.8002 162.287 22.6288 162.287 22.2859C162.287 22.1145 162.287 21.7717 162.287 21.6002C162.287 21.4288 162.287 21.0859 162.287 20.9145C162.287 20.7431 162.287 20.5717 162.448 20.5717L162.608 22.1145L162.769 22.2859C162.769 21.9431 162.769 21.4288 162.769 20.7431C162.769 20.0574 162.769 19.2002 162.93 18.3431C162.93 18.3431 162.93 18.3431 162.93 18.1717C162.93 18.0002 162.93 17.8288 162.93 17.8288C162.93 17.486 162.93 17.4859 162.93 17.4859L163.09 17.8288L163.412 15.7717H163.251V15.4288V15.086C163.09 15.086 162.93 15.086 162.769 15.086C162.608 15.086 162.448 15.086 162.287 15.2574H161.484H161.163H161.002L160.842 15.086C160.681 15.086 160.36 14.9145 160.199 14.5717C160.039 14.2288 159.878 13.886 159.878 13.5431C159.878 13.3717 160.039 13.2002 160.36 13.2002C160.681 13.0288 161.002 13.0288 161.484 12.8574C161.805 12.8574 162.287 12.686 162.608 12.686C163.09 12.686 163.412 12.5145 163.572 12.5145C163.572 12.3431 163.733 12.0002 163.733 11.6574C163.733 11.3145 163.733 10.9717 163.733 10.6288C163.733 10.286 163.733 10.1145 163.733 9.77167C163.733 9.60024 163.733 9.60024 163.733 9.60024C163.733 9.60024 163.733 9.42881 163.733 9.25738C163.733 9.08595 163.893 8.91452 163.893 8.74309C163.893 8.57167 164.054 8.40024 164.054 8.22881C164.054 8.05738 164.054 7.88595 164.054 7.88595C164.054 7.88595 164.054 7.88595 164.054 7.71452C164.054 7.71452 164.054 7.5431 164.054 7.37167C164.054 7.20024 164.054 7.20024 164.054 7.02881C164.215 7.02881 164.375 7.02881 164.696 7.20024C165.018 7.37167 165.339 7.37167 165.66 7.54309C165.981 7.71452 166.303 7.88595 166.463 8.22881C166.624 8.40024 166.784 8.74309 166.784 8.91452C166.784 9.08595 166.624 9.60024 166.463 9.94309C166.303 10.286 166.142 10.8002 166.142 11.1431L165.981 12.0002C166.624 12.0002 167.266 12.0002 167.909 12.0002C168.551 12.0002 169.033 11.8288 169.354 11.8288C169.515 11.8288 169.676 11.8288 169.836 12.0002C169.997 12.0002 169.997 12.1717 169.997 12.5145L170.318 14.4002ZM162.93 20.5717H162.769C162.769 20.5717 162.769 20.4002 162.769 20.0574C162.769 19.7145 162.769 19.5431 162.93 19.5431V20.5717ZM164.215 21.7717L164.054 22.1145V22.4574L164.375 21.6002H164.215V21.7717ZM164.375 21.0859C164.215 21.0859 164.215 21.0859 164.215 21.2574C164.215 21.4288 164.215 21.4288 164.375 21.4288C164.536 21.4288 164.536 21.4288 164.536 21.2574C164.536 21.0859 164.536 21.0859 164.375 21.0859Z" fill="#EEFFFC"/>
</svg>
